<svg width="746" height="746" viewBox="0 0 746 746" fill="none" xmlns="http://www.w3.org/2000/svg">
<path d="M149.86 437.545C189.499 389.755 257.639 369.825 315.455 353.712C409.844 327.403 510.302 311.019 591.772 252.903C674.864 193.616 714.813 101.27 716.696 0.120453C714.483 -0.400315 714.382 0.861541 713.321 2.10337C707.843 8.52283 702.926 16.4045 697.027 22.8039C628.266 97.4739 497.853 146.216 402.553 177.061C299.791 210.32 183.911 230.35 111.674 318.199C54.56 387.652 55.1508 480.048 105.655 552.675C114.158 513.116 123.462 469.372 149.86 437.545Z" fill="white"/>
<path d="M332.42 371.278C277.909 384.597 214.175 402.023 176.109 445.888C147.627 478.706 138.624 524.924 123.271 564.903C102.571 618.803 75.9415 670.128 46.4981 719.651L29.3027 746C68.0899 736.206 107.698 717.348 140.156 693.963C211.541 642.538 268.265 547.547 299.03 466.168C310.878 434.821 319.48 402.223 332.429 371.278H332.42Z" fill="white"/>
<path d="M345.529 405.258C338.569 424.616 331.548 444.556 326.451 464.345C380.16 468.441 437.104 462.823 487.548 443.444C570.801 411.467 626.443 330.277 643.899 244.761C566.184 315.405 460.548 340.202 361.092 364.728C355.193 377.937 350.416 391.648 345.529 405.258Z" fill="white"/>
<path d="M349.715 484.655C338.809 484.435 327.983 484.034 317.107 483.653C304.869 517.003 287.263 547.838 270.368 578.914C315.164 590.491 360.501 592.694 404.325 576.24C461.67 554.718 505.555 505.546 529.34 450.054C497.573 464.345 464.003 474.36 429.493 479.678C402.773 483.794 376.494 485.196 349.715 484.655Z" fill="white"/>
<path d="M291.63 603.609C280.443 601.656 269.547 598.602 258.601 595.737C242.117 626.222 220.114 653.092 197.571 679.16C262.487 690.497 328.995 667.553 372.429 618.321C373.871 616.688 383.716 605.141 382.544 603.99C352.98 610.249 321.374 608.807 291.63 603.609Z" fill="white"/>
</svg>
