<svg width="100%" height="100%" overflow="visible" style="display: block;" viewBox="0 0 16 16" fill="none" xmlns="http://www.w3.org/2000/svg">
<g id="lucide/folder-plus">
<path id="Vector" d="M9.33333 13.3333H3.33333C2.97971 13.3333 2.64057 13.1929 2.39052 12.9428C2.14048 12.6928 2 12.3536 2 12V4C2 3.64638 2.14048 3.30724 2.39052 3.05719C2.64057 2.80714 2.97971 2.66667 3.33333 2.66667H6.33333C6.55623 2.66667 6.77559 2.72255 6.97133 2.8292C7.16708 2.93585 7.33298 3.08988 7.45333 3.27733L8 4.13333C8.12035 4.32079 8.28625 4.47482 8.482 4.58147C8.67774 4.68812 8.8971 4.744 9.12 4.744H12.6667C13.0203 4.744 13.3594 4.88448 13.6095 5.13452C13.8595 5.38457 14 5.72371 14 6.07733V8.66667" stroke="var(--stroke-0, #999999)" stroke-linecap="round" stroke-linejoin="round"/>
<path id="Vector_2" d="M12 10V14" stroke="var(--stroke-0, #999999)" stroke-linecap="round" stroke-linejoin="round"/>
<path id="Vector_3" d="M10 12H14" stroke="var(--stroke-0, #999999)" stroke-linecap="round" stroke-linejoin="round"/>
</g>
</svg>
