<svg preserveAspectRatio="none" width="100%" height="100%" overflow="visible" style="display: block;" viewBox="0 0 16 16" fill="none" xmlns="http://www.w3.org/2000/svg">
<g id="lucide/pin">
<path id="Vector" d="M8 11.3333V14.6667M6 7.17333C5.99987 7.42139 5.93054 7.66449 5.79981 7.8753C5.66909 8.08612 5.48214 8.25628 5.26 8.36667L4.07333 8.96667C3.85119 9.07705 3.66425 9.24722 3.53352 9.45803C3.40279 9.66884 3.33346 9.91194 3.33333 10.16V10.6667C3.33333 10.8435 3.40357 11.013 3.5286 11.1381C3.65362 11.2631 3.82319 11.3333 4 11.3333H12C12.1768 11.3333 12.3464 11.2631 12.4714 11.1381C12.5964 11.013 12.6667 10.8435 12.6667 10.6667V10.16C12.6665 9.91194 12.5972 9.66884 12.4665 9.45803C12.3358 9.24722 12.1488 9.07705 11.9267 8.96667L10.74 8.36667C10.5179 8.25628 10.3309 8.08612 10.2002 7.8753C10.0695 7.66449 10.0001 7.42139 10 7.17333V4.66667C10 4.48986 10.0702 4.32029 10.1953 4.19526C10.3203 4.07024 10.4899 4 10.6667 4C11.0203 4 11.3594 3.85952 11.6095 3.60948C11.8595 3.35943 12 3.02029 12 2.66667C12 2.31304 11.8595 1.97391 11.6095 1.72386C11.3594 1.47381 11.0203 1.33333 10.6667 1.33333H5.33333C4.97971 1.33333 4.64057 1.47381 4.39052 1.72386C4.14048 1.97391 4 2.31304 4 2.66667C4 3.02029 4.14048 3.35943 4.39052 3.60948C4.64057 3.85952 4.97971 4 5.33333 4C5.51014 4 5.67971 4.07024 5.80474 4.19526C5.92976 4.32029 6 4.48986 6 4.66667V7.17333Z" stroke="var(--stroke-0, black)" stroke-linecap="round" stroke-linejoin="round"/>
</g>
</svg>
