<svg preserveAspectRatio="none" width="100%" height="100%" overflow="visible" style="display: block;" viewBox="0 0 16 16" fill="none" xmlns="http://www.w3.org/2000/svg">
<g id="lucide/archive">
<path id="Vector" d="M2.66667 5.33333V12.6667C2.66667 13.0203 2.80714 13.3594 3.05719 13.6095C3.30724 13.8595 3.64638 14 4 14H12C12.3536 14 12.6928 13.8595 12.9428 13.6095C13.1929 13.3594 13.3333 13.0203 13.3333 12.6667V5.33333M6.66667 8H9.33333M2 2H14C14.3682 2 14.6667 2.29848 14.6667 2.66667V4.66667C14.6667 5.03486 14.3682 5.33333 14 5.33333H2C1.63181 5.33333 1.33333 5.03486 1.33333 4.66667V2.66667C1.33333 2.29848 1.63181 2 2 2Z" stroke="var(--stroke-0, black)" stroke-linecap="round" stroke-linejoin="round"/>
</g>
</svg>
