<svg width="16" height="16" viewBox="0 0 16 16" fill="none" xmlns="http://www.w3.org/2000/svg">
<path d="M1.33333 6.66667H14.6667M13.3333 13.3333C13.687 13.3333 14.0261 13.1929 14.2761 12.9428C14.5262 12.6928 14.6667 12.3536 14.6667 12V5.33333C14.6667 4.97971 14.5262 4.64057 14.2761 4.39052C14.0261 4.14048 13.687 4 13.3333 4H8.06666C7.84367 4.00219 7.62369 3.94841 7.42686 3.84359C7.23003 3.73877 7.06264 3.58625 6.93999 3.4L6.4 2.6C6.27859 2.41565 6.11331 2.26432 5.91899 2.1596C5.72468 2.05488 5.5074 2.00004 5.28666 2H2.66666C2.31304 2 1.9739 2.14048 1.72385 2.39052C1.4738 2.64057 1.33333 2.97971 1.33333 3.33333V12C1.33333 12.3536 1.4738 12.6928 1.72385 12.9428C1.9739 13.1929 2.31304 13.3333 2.66666 13.3333H13.3333Z" stroke="black" stroke-linecap="round" stroke-linejoin="round"/>
</svg>
