<svg preserveAspectRatio="none" width="100%" height="100%" overflow="visible" style="display: block;" viewBox="0 0 14 14" fill="none" xmlns="http://www.w3.org/2000/svg">
<g id="lucide/folder-plus">
<path id="Vector" d="M7.00004 5.83333V9.33333M5.25004 7.58333H8.75004M11.6667 11.6667C11.9761 11.6667 12.2729 11.5438 12.4917 11.325C12.7105 11.1062 12.8334 10.8094 12.8334 10.5V4.66667C12.8334 4.35725 12.7105 4.0605 12.4917 3.84171C12.2729 3.62292 11.9761 3.5 11.6667 3.5H7.05837C6.86325 3.50191 6.67077 3.45486 6.49854 3.36314C6.32632 3.27142 6.17985 3.13797 6.07254 2.975L5.60004 2.275C5.49381 2.11369 5.34919 1.98128 5.17916 1.88965C5.00913 1.79802 4.81902 1.75003 4.62587 1.75H2.33337C2.02395 1.75 1.7272 1.87292 1.50841 2.09171C1.28962 2.3105 1.1667 2.60725 1.1667 2.91667V10.5C1.1667 10.8094 1.28962 11.1062 1.50841 11.325C1.7272 11.5438 2.02395 11.6667 2.33337 11.6667H11.6667Z" stroke="var(--stroke-0, #999999)" stroke-width="0.875" stroke-linecap="round" stroke-linejoin="round"/>
</g>
</svg>
