<svg preserveAspectRatio="none" width="100%" height="100%" overflow="visible" style="display: block;" viewBox="0 0 16 16" fill="none" xmlns="http://www.w3.org/2000/svg">
<g id="lucide/monitor-smartphone">
<path id="Vector" d="M12 5.33333V4C12 3.64638 11.8595 3.30724 11.6095 3.05719C11.3594 2.80714 11.0203 2.66667 10.6667 2.66667H2.66667C2.31304 2.66667 1.97391 2.80714 1.72386 3.05719C1.47381 3.30724 1.33333 3.64638 1.33333 4V8.66667C1.33333 9.02029 1.47381 9.35943 1.72386 9.60948C1.97391 9.85952 2.31304 10 2.66667 10H8M6.66667 12.6667V10.0267M4.66667 12.6667H8M12 8H13.3333C14.0697 8 14.6667 8.59695 14.6667 9.33333V13.3333C14.6667 14.0697 14.0697 14.6667 13.3333 14.6667H12C11.2636 14.6667 10.6667 14.0697 10.6667 13.3333V9.33333C10.6667 8.59695 11.2636 8 12 8Z" stroke="var(--stroke-0, black)" stroke-linecap="round" stroke-linejoin="round"/>
</g>
</svg>
