<svg preserveAspectRatio="none" width="100%" height="100%" overflow="visible" style="display: block;" viewBox="0 0 16 16" fill="none" xmlns="http://www.w3.org/2000/svg">
<g id="lucide/ellipsis">
<g id="Vector (Stroke)">
<path d="M3.33366 9.16634C3.97773 9.16617 4.4995 8.6444 4.49967 8.00033C4.49967 7.3561 3.97784 6.83351 3.33366 6.83333C2.68933 6.83333 2.16667 7.35599 2.16667 8.00033C2.16684 8.64451 2.68943 9.16634 3.33366 9.16634Z" fill="var(--fill-0, black)"/>
<path d="M7.99967 9.16634C8.6439 9.16634 9.16649 8.64451 9.16667 8.00033C9.16667 7.35599 8.64401 6.83333 7.99967 6.83333C7.35549 6.83351 6.83366 7.3561 6.83366 8.00033C6.83383 8.6444 7.3556 9.16617 7.99967 9.16634Z" fill="var(--fill-0, black)"/>
<path d="M12.6667 9.16634C13.3109 9.16634 13.8335 8.64451 13.8337 8.00033C13.8337 7.35599 13.311 6.83333 12.6667 6.83333C12.0223 6.83333 11.4997 7.35599 11.4997 8.00033C11.4998 8.64451 12.0224 9.16634 12.6667 9.16634Z" fill="var(--fill-0, black)"/>
</g>
</g>
</svg>
