<svg preserveAspectRatio="none" width="100%" height="100%" overflow="visible" style="display: block;" viewBox="0 0 32 32" fill="none" xmlns="http://www.w3.org/2000/svg">
<g id="lucide/folder-open">
<path id="Vector" d="M8.00033 18.6668L10.0003 14.8001C10.2178 14.3683 10.5485 14.0037 10.9571 13.7454C11.3658 13.487 11.837 13.3447 12.3203 13.3335H26.667M26.667 13.3335C27.0744 13.3327 27.4765 13.4254 27.8425 13.6042C28.2085 13.7831 28.5287 14.0434 28.7784 14.3653C29.0282 14.6871 29.2009 15.0619 29.2832 15.4609C29.3656 15.8598 29.3555 16.2724 29.2537 16.6668L27.2003 24.6668C27.0518 25.2422 26.7153 25.7515 26.2442 26.1139C25.7732 26.4762 25.1946 26.6708 24.6003 26.6668H5.33366C4.62641 26.6668 3.94814 26.3858 3.44804 25.8857C2.94794 25.3856 2.66699 24.7074 2.66699 24.0001V6.66679C2.66699 5.95955 2.94794 5.28127 3.44804 4.78118C3.94814 4.28108 4.62641 4.00013 5.33366 4.00013H10.5337C10.9796 3.99576 11.4196 4.10331 11.8133 4.31295C12.2069 4.5226 12.5417 4.82763 12.787 5.20013L13.867 6.80013C14.1098 7.16883 14.4404 7.47149 14.829 7.68093C15.2176 7.89038 15.6522 8.00006 16.0937 8.00013H24.0003C24.7076 8.00013 25.3858 8.28108 25.8859 8.78118C26.386 9.28127 26.667 9.95955 26.667 10.6668V13.3335Z" stroke="var(--stroke-0, black)" stroke-width="2" stroke-linecap="round" stroke-linejoin="round"/>
</g>
</svg>
