<svg preserveAspectRatio="none" width="100%" height="100%" overflow="visible" style="display: block;" viewBox="0 0 16 16" fill="none" xmlns="http://www.w3.org/2000/svg">
<g id="lucide/file-image">
<path id="Vector" d="M9.33333 1.33333H4C3.64638 1.33333 3.30724 1.47381 3.05719 1.72386C2.80714 1.97391 2.66667 2.31304 2.66667 2.66667V13.3333C2.66667 13.687 2.80714 14.0261 3.05719 14.2761C3.30724 14.5262 3.64638 14.6667 4 14.6667H12C12.3536 14.6667 12.6928 14.5262 12.9428 14.2761C13.1929 14.0261 13.3333 13.687 13.3333 13.3333V5.33333M9.33333 1.33333C9.54437 1.33299 9.75339 1.3744 9.94835 1.45518C10.1433 1.53596 10.3204 1.65451 10.4693 1.804L12.8613 4.196C13.0112 4.345 13.1301 4.52223 13.2111 4.71744C13.2921 4.91265 13.3337 5.12198 13.3333 5.33333M9.33333 1.33333L9.33333 4.66667C9.33333 4.84348 9.40357 5.01305 9.5286 5.13807C9.65362 5.2631 9.82319 5.33333 10 5.33333L13.3333 5.33333M13.3333 11.3333L12.4693 10.4693C12.168 10.1681 11.7594 9.99884 11.3333 9.99884C10.9073 9.99884 10.4986 10.1681 10.1973 10.4693L6 14.6667M8 8C8 8.73638 7.40305 9.33333 6.66667 9.33333C5.93029 9.33333 5.33333 8.73638 5.33333 8C5.33333 7.26362 5.93029 6.66667 6.66667 6.66667C7.40305 6.66667 8 7.26362 8 8Z" stroke="var(--stroke-0, #666666)" stroke-linecap="round" stroke-linejoin="round"/>
</g>
</svg>
