<svg preserveAspectRatio="none" width="100%" height="100%" overflow="visible" style="display: block;" viewBox="0 0 16 16" fill="none" xmlns="http://www.w3.org/2000/svg">
<g id="lucide/file-image">
<path id="Vector" d="M4 14.6667C3.64638 14.6667 3.30724 14.5262 3.05719 14.2761C2.80714 14.0261 2.66667 13.687 2.66667 13.3333V2.66667C2.66667 2.31304 2.80714 1.97391 3.05719 1.72386C3.30724 1.47381 3.64638 1.33333 4 1.33333H9.33333C9.54437 1.33299 9.75339 1.3744 9.94835 1.45518C10.1433 1.53596 10.3204 1.65451 10.4693 1.804L12.8613 4.196C13.0112 4.345 13.1301 4.52223 13.2111 4.71744C13.2921 4.91265 13.3337 5.12198 13.3333 5.33333V13.3333C13.3333 13.687 13.1929 14.0261 12.9428 14.2761C12.6928 14.5262 12.3536 14.6667 12 14.6667H4Z" stroke="var(--stroke-0, #666666)" stroke-linecap="round" stroke-linejoin="round"/>
<g id="Frame" clip-path="url(#clip0_0_46)">
<path id="Vector_2" d="M10.8889 9.97779C10.2889 9.93334 9.71111 9.71112 9.24444 9.31112C8.33333 9.51112 7.46667 9.80001 6.6 10.1556C5.91111 11.3778 5.26667 12 4.71111 12C4.6 12 4.46667 11.9778 4.37778 11.9111C4.13333 11.8 4 11.5556 4 11.3111C4 11.1111 4.04444 10.5556 6.15556 9.64446C6.64444 8.75557 7.02222 7.84446 7.33333 6.8889C7.06667 6.35557 6.48889 5.04446 6.88889 4.37779C7.02222 4.13334 7.28889 4.00001 7.57778 4.02223C7.8 4.02223 8.02222 4.13334 8.15556 4.31112C8.44444 4.71112 8.42222 5.55557 8.04444 6.80001C8.4 7.46668 8.86667 8.06668 9.42222 8.57779C9.88889 8.4889 10.3556 8.42223 10.8222 8.42223C11.8667 8.44446 12.0222 8.93334 12 9.22223C12 9.97779 11.2667 9.97779 10.8889 9.97779ZM4.66667 11.3556L4.73333 11.3333C5.04444 11.2222 5.28889 11 5.46667 10.7111C5.13333 10.8445 4.86667 11.0667 4.66667 11.3556ZM7.62222 4.6889H7.55556C7.53333 4.6889 7.48889 4.6889 7.46667 4.71112C7.37778 5.0889 7.44444 5.4889 7.6 5.84446C7.73333 5.46668 7.73333 5.06668 7.62222 4.6889ZM7.77778 7.91112L7.75556 7.95557L7.73333 7.93335C7.53333 8.44446 7.31111 8.95557 7.06667 9.44446L7.11111 9.42223V9.46668C7.6 9.2889 8.13333 9.13334 8.62222 9.02223L8.6 9.00001H8.66667C8.33333 8.66668 8.02222 8.2889 7.77778 7.91112ZM10.8 9.0889C10.6 9.0889 10.4222 9.0889 10.2222 9.13334C10.4444 9.24446 10.6667 9.2889 10.8889 9.31112C11.0444 9.33334 11.2 9.31112 11.3333 9.26668C11.3333 9.20001 11.2444 9.0889 10.8 9.0889Z" fill="var(--fill-0, #666666)"/>
</g>
</g>
<defs>
<clipPath id="clip0_0_46">
<rect width="8" height="8" fill="white" transform="translate(4 4)"/>
</clipPath>
</defs>
</svg>
