<svg preserveAspectRatio="none" width="100%" height="100%" overflow="visible" style="display: block;" viewBox="0 0 16 16" fill="none" xmlns="http://www.w3.org/2000/svg">
<g id="lucide/file-image">
<path id="Vector" d="M4 14.6667C3.64638 14.6667 3.30724 14.5262 3.05719 14.2761C2.80714 14.0261 2.66667 13.687 2.66667 13.3333V2.66667C2.66667 2.31304 2.80714 1.97391 3.05719 1.72386C3.30724 1.47381 3.64638 1.33333 4 1.33333H9.33333C9.54437 1.33299 9.75339 1.3744 9.94835 1.45518C10.1433 1.53596 10.3204 1.65451 10.4693 1.804L12.8613 4.196C13.0112 4.345 13.1301 4.52223 13.2111 4.71744C13.2921 4.91265 13.3337 5.12198 13.3333 5.33333V13.3333C13.3333 13.687 13.1929 14.0261 12.9428 14.2761C12.6928 14.5262 12.3536 14.6667 12 14.6667H4Z" stroke="var(--stroke-0, #666666)" stroke-linecap="round" stroke-linejoin="round"/>
<path id="Vector_2" d="M6 11.3332V8.6665M6 8.6665V4.6665H8.66667C9.1971 4.6665 9.70581 4.87722 10.0809 5.25229C10.456 5.62736 10.6667 6.13607 10.6667 6.6665C10.6667 7.19694 10.456 7.70565 10.0809 8.08072C9.70581 8.45579 9.1971 8.6665 8.66667 8.6665H6Z" stroke="var(--stroke-0, #666666)" stroke-linecap="round" stroke-linejoin="round"/>
<g id="Frame">
</g>
</g>
</svg>
