<svg preserveAspectRatio="none" width="100%" height="100%" overflow="visible" style="display: block;" viewBox="0 0 32 32" fill="none" xmlns="http://www.w3.org/2000/svg">
<g id="lucide/folder-search-2">
<path id="Vector" d="M17.7332 19.0667L19.9998 21.3333M18.6665 16.6667C18.6665 18.5076 17.1741 20 15.3332 20C13.4922 20 11.9998 18.5076 11.9998 16.6667C11.9998 14.8257 13.4922 13.3333 15.3332 13.3333C17.1741 13.3333 18.6665 14.8257 18.6665 16.6667ZM26.6665 26.6667C27.3737 26.6667 28.052 26.3857 28.5521 25.8856C29.0522 25.3855 29.3332 24.7072 29.3332 24V10.6667C29.3332 9.95942 29.0522 9.28115 28.5521 8.78105C28.052 8.28095 27.3737 8 26.6665 8H16.1332C15.6872 8.00437 15.2472 7.89682 14.8536 7.68717C14.4599 7.47753 14.1251 7.1725 13.8798 6.8L12.7998 5.2C12.557 4.83129 12.2265 4.52864 11.8378 4.3192C11.4492 4.10975 11.0146 4.00007 10.5732 4H5.33317C4.62593 4 3.94765 4.28095 3.44755 4.78105C2.94746 5.28115 2.6665 5.95942 2.6665 6.66667V24C2.6665 24.7072 2.94746 25.3855 3.44755 25.8856C3.94765 26.3857 4.62593 26.6667 5.33317 26.6667H26.6665Z" stroke="var(--stroke-0, black)" stroke-width="2" stroke-linecap="round" stroke-linejoin="round"/>
</g>
</svg>
