<svg preserveAspectRatio="none" width="100%" height="100%" overflow="visible" style="display: block;" viewBox="0 0 24 24" fill="none" xmlns="http://www.w3.org/2000/svg">
<g id="pdf">
<path id="Vector" d="M15.4378 1.49902H6.31315C4.48362 1.49902 3.00073 2.98215 3.00073 4.81145V19.1775C3.00073 21.007 4.48386 22.4899 6.31315 22.4899H17.6918C19.5214 22.4899 21.0043 21.0068 21.0043 19.1775V7.0652C21.0043 6.31918 20.708 5.60387 20.1804 5.07652L17.4265 2.32262C16.899 1.79527 16.1837 1.49902 15.4378 1.49902Z" fill="var(--fill-0, #FF7878)"/>
<path id="Vector_2" d="M20.1804 5.07627L17.4265 2.32236C17.0314 1.92728 16.5275 1.65883 15.9792 1.55127V4.64221C15.9792 5.62354 16.7747 6.419 17.756 6.419H20.9287C20.8088 5.91064 20.5496 5.44571 20.1804 5.07627ZM15.2166 12.9981C14.6824 12.9981 14.153 13.0757 13.6191 13.1763C12.9893 12.596 12.4552 11.9106 12.049 11.1475C12.4826 9.7265 12.5053 8.76252 12.1767 8.30549C12.026 8.10439 11.775 7.97643 11.5195 7.97643C11.1909 7.95369 10.8851 8.10439 10.7344 8.38307C10.278 9.14619 10.9397 10.6448 11.2455 11.2525C10.894 12.3445 10.4604 13.3863 9.90375 14.4006C7.4939 15.4424 7.44351 16.0774 7.44351 16.3059C7.44351 16.5846 7.59422 16.8632 7.87265 16.9912C7.97297 17.0643 8.12367 17.0917 8.2514 17.0917C8.88586 17.0917 9.62062 16.379 10.4058 14.981C11.3962 14.5743 12.382 14.2453 13.4229 14.017C13.957 14.4738 14.6142 14.7297 15.2988 14.7801C15.7324 14.7801 16.5677 14.7801 16.5586 13.912C16.586 13.5829 16.4079 13.0256 15.2166 12.9981ZM8.28586 16.323L8.20945 16.3504C8.43445 16.0209 8.73117 15.7645 9.10898 15.6088C8.91117 15.9431 8.63672 16.1948 8.28586 16.323ZM11.3934 8.76768C11.4173 8.74049 11.4677 8.7126 11.4966 8.7126L11.5802 8.74049C11.7096 9.17197 11.7096 9.62643 11.5514 10.0535C11.3648 9.64893 11.2882 9.19471 11.3934 8.76768ZM12.7092 13.6874C12.1559 13.8163 11.5479 13.9961 10.9945 14.1986L10.9371 14.2211L10.9446 14.1756C11.2214 13.6138 11.4752 13.0242 11.7021 12.4347L11.7293 12.3773L11.7567 12.4117C12.038 12.8446 12.3942 13.2909 12.7753 13.6731L12.7092 13.6874ZM15.3148 14.0057C15.06 13.9835 14.8099 13.9345 14.5554 13.81C14.7827 13.761 14.9829 13.761 15.2102 13.761C15.7151 13.761 15.8152 13.8857 15.8196 13.9567C15.6694 14.0057 15.4919 14.0324 15.3148 14.0057Z" fill="var(--fill-0, #F25555)"/>
<path id="Vector_3" d="M15.21 13.4797C14.9827 13.4797 14.7825 13.4797 14.5552 13.5287C14.8099 13.6534 15.06 13.7022 15.3145 13.7244C15.4919 13.7511 15.6694 13.7244 15.8194 13.6754C15.8149 13.6044 15.7148 13.4797 15.21 13.4797ZM11.7567 12.1304L11.7293 12.096L11.7021 12.1534C11.4752 12.7429 11.2212 13.3325 10.9446 13.8943L10.9371 13.9398L10.9945 13.9173C11.5479 13.7146 12.1559 13.535 12.7092 13.4061L12.7751 13.3918C12.3942 13.0093 12.038 12.5633 11.7567 12.1304ZM11.5805 8.45895L11.4968 8.43106C11.468 8.43106 11.4176 8.45895 11.3937 8.48613C11.2882 8.91317 11.3648 9.36739 11.5519 9.77168C11.7098 9.34489 11.7098 8.89067 11.5805 8.45895ZM8.20945 16.0691L8.28586 16.0417C8.63672 15.9135 8.91117 15.6618 9.10898 15.3275C8.73117 15.4832 8.43445 15.7396 8.20945 16.0691ZM15.2988 14.4988C14.6142 14.4486 13.957 14.1927 13.4229 13.7357C12.3823 13.9642 11.3962 14.293 10.4058 14.6997C9.62062 16.0977 8.88586 16.8104 8.2514 16.8104C8.12367 16.8104 7.97297 16.783 7.87265 16.7099C7.59422 16.5819 7.44351 16.3032 7.44351 16.0246C7.44351 15.7961 7.49367 15.1611 9.90375 14.1193C10.4606 13.105 10.8942 12.0632 11.2455 10.9712C10.9397 10.3635 10.2778 8.86488 10.7344 8.10176C10.8851 7.82309 11.1907 7.67238 11.5195 7.69512C11.7752 7.69512 12.0262 7.82309 12.1767 8.02418C12.5053 8.48098 12.4826 9.4452 12.049 10.8662C12.4552 11.6293 12.9893 12.3147 13.6191 12.895C14.1532 12.7944 14.6827 12.7168 15.2166 12.7168C16.4079 12.7443 16.5858 13.3016 16.5584 13.6307C16.5677 14.4988 15.7324 14.4988 15.2988 14.4988Z" fill="var(--fill-0, white)"/>
</g>
</svg>
