<svg preserveAspectRatio="none" width="100%" height="100%" overflow="visible" style="display: block;" viewBox="0 0 24 24" fill="none" xmlns="http://www.w3.org/2000/svg">
<g id="png">
<path id="Vector" d="M18.472 21.7554H5.58141C3.76922 21.7554 2.30016 20.2863 2.30016 18.4741V5.5835C2.30016 3.77131 3.76922 2.30225 5.58141 2.30225H18.472C20.2842 2.30225 21.7533 3.77131 21.7533 5.5835V18.4741C21.7533 20.2863 20.2842 21.7554 18.472 21.7554Z" fill="var(--fill-0, #FFC757)"/>
<path id="Vector_2" d="M18.0513 15.1153L16.4679 12.3729C16.107 11.7475 15.2044 11.7475 14.8434 12.3729L13.3432 14.9716L10.5539 10.1402C10.193 9.51512 9.29086 9.51512 8.92992 10.1402L6.05742 15.1157C5.69648 15.7408 6.14766 16.5222 6.86953 16.5222H17.2392C17.9611 16.522 18.4123 15.7406 18.0513 15.1153Z" fill="var(--fill-0, #EF9F2B)"/>
<path id="Vector_3" d="M13.9478 9.09873C14.0897 9.41159 14.3501 9.65524 14.6718 9.77608C14.9934 9.89692 15.3498 9.88505 15.6627 9.74308C15.9755 9.60112 16.2192 9.34069 16.34 9.01908C16.4608 8.69748 16.449 8.34104 16.307 8.02818C16.165 7.71533 15.9046 7.47168 15.583 7.35084C15.2614 7.23 14.905 7.24187 14.5921 7.38383C14.2792 7.5258 14.0356 7.78623 13.9148 8.10783C13.7939 8.42944 13.8058 8.78588 13.9478 9.09873Z" fill="var(--fill-0, #EF9F2B)"/>
<path id="Vector_4" d="M18.0513 14.834L16.4679 12.0916C16.107 11.4663 15.2044 11.4663 14.8434 12.0916L13.3432 14.6904L10.5539 9.85895C10.193 9.23387 9.29086 9.23387 8.92992 9.85895L6.05742 14.8345C5.69648 15.4596 6.14766 16.241 6.86953 16.241H17.2392C17.9611 16.2407 18.4123 15.4593 18.0513 14.834Z" fill="var(--fill-0, white)"/>
<path id="Vector_5" d="M13.9478 8.8173C14.0181 8.97222 14.1182 9.11178 14.2424 9.22801C14.3666 9.34424 14.5125 9.43486 14.6718 9.4947C14.831 9.55454 15.0005 9.58243 15.1705 9.57677C15.3405 9.57111 15.5078 9.53202 15.6627 9.46172C15.8176 9.39142 15.9572 9.2913 16.0734 9.16707C16.1896 9.04284 16.2802 8.89694 16.3401 8.73769C16.3999 8.57843 16.4278 8.40896 16.4221 8.23893C16.4164 8.06891 16.3773 7.90167 16.307 7.74675C16.2367 7.59183 16.1366 7.45227 16.0124 7.33605C15.8882 7.21982 15.7423 7.1292 15.583 7.06936C15.4238 7.00952 15.2543 6.98163 15.0843 6.98729C14.9142 6.99295 14.747 7.03204 14.5921 7.10234C14.4372 7.17263 14.2976 7.27275 14.1814 7.39699C14.0652 7.52122 13.9746 7.66712 13.9147 7.82637C13.8549 7.98562 13.827 8.1551 13.8327 8.32512C13.8384 8.49515 13.8775 8.66239 13.9478 8.8173Z" fill="var(--fill-0, white)"/>
</g>
</svg>
