<svg preserveAspectRatio="none" width="100%" height="100%" overflow="visible" style="display: block;" viewBox="0 0 24 24" fill="none" xmlns="http://www.w3.org/2000/svg">
<g id="ppt">
<path id="Vector" d="M15.4354 1.49829H6.3107C4.48117 1.49829 2.99828 2.98142 2.99828 4.81071V19.1767C2.99828 21.0063 4.4814 22.4892 6.3107 22.4892H17.6894C19.5189 22.4892 21.0018 21.006 21.0018 19.1767V7.0647C21.0018 6.31868 20.7055 5.60337 20.178 5.07603L17.4241 2.32212C16.8966 1.7947 16.1813 1.49837 15.4354 1.49829Z" fill="var(--fill-0, #F98950)"/>
<path id="Vector_2" d="M20.178 5.07603L17.4241 2.32212C17.029 1.92703 16.5252 1.65859 15.9769 1.55103V4.64196C15.9769 5.62329 16.7723 6.41876 17.7537 6.41876H20.9264C20.8065 5.91034 20.5474 5.44537 20.178 5.07603ZM13.0317 8.16485H8.9149C8.60435 8.16485 8.3524 8.41681 8.3524 8.72735V15.8228C8.3524 16.1334 8.60435 16.3853 8.9149 16.3853C9.22545 16.3853 9.4774 16.1334 9.4774 15.8228V13.9591H13.0317C14.6292 13.9591 15.9288 12.6595 15.9288 11.062C15.9288 9.46446 14.6292 8.16485 13.0317 8.16485ZM13.0317 12.8341H9.4774V9.28985H13.0317C14.0088 9.28985 14.8038 10.0849 14.8038 11.062C14.8038 12.0391 14.0088 12.8341 13.0317 12.8341Z" fill="var(--fill-0, #F26C38)"/>
<path id="Vector_3" d="M13.0317 7.88403H8.9149C8.60435 7.88403 8.3524 8.13599 8.3524 8.44653V15.542C8.3524 15.8525 8.60435 16.1045 8.9149 16.1045C9.22545 16.1045 9.4774 15.8525 9.4774 15.542V13.6783H13.0317C14.6292 13.6783 15.9288 12.3786 15.9288 10.7811C15.9288 9.18364 14.6292 7.88403 13.0317 7.88403ZM13.0317 12.5533H9.4774V9.00903H13.0317C14.0088 9.00903 14.8038 9.80403 14.8038 10.7811C14.8038 11.7583 14.0088 12.5533 13.0317 12.5533Z" fill="var(--fill-0, white)"/>
</g>
</svg>
