<svg preserveAspectRatio="none" width="100%" height="100%" overflow="visible" style="display: block;" viewBox="0 0 24 24" fill="none" xmlns="http://www.w3.org/2000/svg">
<g id="unknown">
<path id="Vector" d="M15.4622 1.50439H6.33751C4.50798 1.50439 3.02509 2.98752 3.02509 4.81682V19.1828C3.02509 21.0124 4.50821 22.4953 6.33751 22.4953H17.7162C19.5457 22.4953 21.0286 21.0121 21.0286 19.1828V7.0708C21.0286 6.32479 20.7324 5.60947 20.2048 5.08213L17.4509 2.32822C16.9234 1.80081 16.2081 1.50447 15.4622 1.50439Z" fill="var(--fill-0, #C7DADD)"/>
<path id="Vector_2" d="M20.2048 5.08213L17.4509 2.32822C17.0557 1.93314 16.5519 1.66469 16.0036 1.55713V4.64807C16.0036 5.62939 16.7991 6.42486 17.7804 6.42486H20.9531C20.8332 5.91646 20.5741 5.45151 20.2048 5.08213ZM12.0124 6.93557C10.0882 6.93557 8.52258 8.50119 8.52258 10.4254C8.52258 10.7191 8.76047 10.957 9.05415 10.957C9.34782 10.957 9.58571 10.7191 9.58571 10.4254C9.58571 9.08736 10.6744 7.99869 12.0124 7.99869C12.66 7.99869 13.2691 8.25135 13.7278 8.71002C14.1865 9.16869 14.4391 9.77807 14.4391 10.4254C14.4391 10.9202 14.2913 11.396 14.0116 11.8014C13.7379 12.198 13.358 12.502 12.9124 12.6799C12.0427 13.0274 11.4809 13.8494 11.4809 14.7735V14.8124C11.4809 15.1061 11.7188 15.344 12.0124 15.344C12.3061 15.344 12.544 15.1061 12.544 14.8124V14.7735C12.544 14.2865 12.8435 13.8522 13.3071 13.6671C13.9477 13.4111 14.4938 12.9747 14.8868 12.4052C15.2895 11.8216 15.5023 11.137 15.5023 10.4254C15.5023 9.494 15.139 8.61768 14.4795 7.95814C13.8202 7.29885 12.9438 6.93557 12.0124 6.93557Z" fill="var(--fill-0, #9DC0C9)"/>
<path id="Vector_3" d="M11.7416 17.5843C11.8276 17.6199 11.9197 17.6382 12.0128 17.6382C12.1059 17.6382 12.198 17.6199 12.284 17.5843C12.37 17.5487 12.4482 17.4965 12.514 17.4307C12.5798 17.3648 12.632 17.2867 12.6676 17.2007C12.7033 17.1147 12.7216 17.0226 12.7216 16.9295C12.7216 16.8364 12.7032 16.7442 12.6676 16.6582C12.632 16.5722 12.5798 16.4941 12.514 16.4283C12.4482 16.3625 12.37 16.3103 12.284 16.2747C12.198 16.239 12.1059 16.2207 12.0128 16.2207C11.9197 16.2207 11.8275 16.239 11.7415 16.2746C11.6556 16.3103 11.5774 16.3625 11.5116 16.4283C11.4458 16.4941 11.3936 16.5722 11.358 16.6582C11.3223 16.7442 11.304 16.8364 11.304 16.9295C11.304 17.0225 11.3223 17.1147 11.358 17.2007C11.3936 17.2867 11.4458 17.3648 11.5116 17.4306C11.5774 17.4964 11.6556 17.5487 11.7416 17.5843Z" fill="var(--fill-0, #9DC0C9)"/>
<path id="Vector_4" d="M14.4938 7.67125C13.8342 7.01172 12.9581 6.64844 12.0267 6.64844C10.1025 6.64844 8.53688 8.21406 8.53688 10.1383C8.53688 10.432 8.77477 10.6698 9.06844 10.6698C9.36212 10.6698 9.60001 10.432 9.60001 10.1383C9.60001 8.80023 10.6887 7.71156 12.0267 7.71156C12.6743 7.71156 13.2834 7.96422 13.7421 8.42289C14.2008 8.88156 14.4534 9.49094 14.4534 10.1383C14.4534 10.633 14.3056 11.1088 14.0259 11.5143C13.7522 11.9109 13.3723 12.2148 12.9267 12.3927C12.057 12.7403 11.4952 13.5623 11.4952 14.4864V14.5253C11.4952 14.819 11.7331 15.0569 12.0267 15.0569C12.3204 15.0569 12.5583 14.819 12.5583 14.5253V14.4864C12.5583 13.9994 12.8578 13.5651 13.3214 13.3799C13.962 13.124 14.5081 12.6876 14.9011 12.118C15.3038 11.5345 15.5166 10.8498 15.5166 10.1383C15.5166 9.20687 15.1533 8.33078 14.4938 7.67125Z" fill="var(--fill-0, white)"/>
<path id="Vector_5" d="M11.318 16.6428C11.318 16.7359 11.3363 16.8281 11.3719 16.9141C11.4075 17 11.4597 17.0782 11.5256 17.144C11.5914 17.2098 11.6695 17.262 11.7555 17.2976C11.8415 17.3333 11.9336 17.3516 12.0267 17.3516C12.1198 17.3516 12.212 17.3333 12.2979 17.2976C12.3839 17.262 12.4621 17.2098 12.5279 17.144C12.5937 17.0782 12.6459 17 12.6815 16.9141C12.7171 16.8281 12.7355 16.7359 12.7355 16.6428C12.7355 16.5498 12.7171 16.4576 12.6815 16.3716C12.6459 16.2856 12.5937 16.2075 12.5279 16.1417C12.4621 16.0759 12.3839 16.0237 12.2979 15.988C12.212 15.9524 12.1198 15.9341 12.0267 15.9341C11.9336 15.9341 11.8415 15.9524 11.7555 15.988C11.6695 16.0237 11.5914 16.0759 11.5256 16.1417C11.4597 16.2075 11.4075 16.2856 11.3719 16.3716C11.3363 16.4576 11.318 16.5498 11.318 16.6428Z" fill="var(--fill-0, white)"/>
</g>
</svg>
