<svg preserveAspectRatio="none" width="100%" height="100%" overflow="visible" style="display: block;" viewBox="0 0 24 24" fill="none" xmlns="http://www.w3.org/2000/svg">
<g id="word">
<path id="Vector" d="M15.4402 1.50903H6.31549C4.48596 1.50903 3.00307 2.99216 3.00307 4.82146V19.1875C3.00307 21.017 4.48619 22.4999 6.31549 22.4999H17.6942C19.5237 22.4999 21.0066 21.0168 21.0066 19.1875V7.07521C21.0066 6.32919 20.7103 5.61388 20.1828 5.08653L17.4288 2.33263C16.9014 1.80528 16.186 1.50903 15.4402 1.50903Z" fill="var(--fill-0, #53B7F4)"/>
<path id="Vector_2" d="M15.184 8.45286C14.8735 8.45286 14.6215 8.70481 14.6215 9.01536V14.3183L12.4102 12.1318C12.1915 11.9158 11.8397 11.915 11.6206 12.1307L9.38792 14.3244V8.99989C9.38792 8.68935 9.13597 8.43739 8.82542 8.43739C8.51488 8.43739 8.26292 8.68935 8.26292 8.99989V15.6658C8.26292 15.8924 8.39886 16.0968 8.60792 16.1844C8.71012 16.2273 8.82269 16.239 8.93152 16.2181C9.04035 16.1972 9.14058 16.1446 9.21964 16.067L12.0136 13.322L14.7886 16.0658C14.894 16.17 15.0361 16.2283 15.1843 16.2283C15.2571 16.2283 15.3307 16.214 15.4008 16.1849C15.5032 16.1421 15.5907 16.07 15.6522 15.9776C15.7137 15.8852 15.7465 15.7767 15.7465 15.6658V9.01536C15.7465 8.70481 15.4948 8.45286 15.184 8.45286ZM20.1828 5.08677L17.4289 2.33286C17.0337 1.93777 16.5299 1.66933 15.9816 1.56177V4.65271C15.9816 5.63403 16.7771 6.4295 17.7584 6.4295H20.9311C20.8112 5.9211 20.5521 5.45615 20.1828 5.08677Z" fill="var(--fill-0, #29A3D3)"/>
<path id="Vector_3" d="M15.1843 15.9469C15.0389 15.9469 14.896 15.8906 14.7886 15.7844L12.0136 13.0406L9.21964 15.7856C9.1406 15.8633 9.04037 15.9159 8.93153 15.9368C8.82269 15.9577 8.71011 15.9459 8.60792 15.903C8.5057 15.8602 8.41842 15.7881 8.35704 15.6958C8.29566 15.6036 8.26291 15.4952 8.26292 15.3844V8.71851C8.26292 8.40796 8.51488 8.15601 8.82542 8.15601C9.13597 8.15601 9.38792 8.40796 9.38792 8.71851V14.0433L11.6206 11.8495C11.84 11.6341 12.1918 11.6346 12.4102 11.8507L14.6215 14.0372V8.73397C14.6215 8.42343 14.8735 8.17147 15.184 8.17147C15.4946 8.17147 15.7465 8.42343 15.7465 8.73397V15.3844C15.7465 15.6112 15.6101 15.8161 15.4008 15.9035C15.3322 15.9321 15.2586 15.9468 15.1843 15.9469Z" fill="var(--fill-0, white)"/>
</g>
</svg>
