<svg preserveAspectRatio="none" width="100%" height="100%" overflow="visible" style="display: block;" viewBox="0 0 24 24" fill="none" xmlns="http://www.w3.org/2000/svg">
<g id="xlsx">
<path id="Vector" d="M15.4379 1.49902H6.31322C4.48368 1.49902 3.00079 2.98215 3.00079 4.81145V19.1775C3.00079 21.007 4.48392 22.4899 6.31322 22.4899H17.6919C19.5214 22.4899 21.0043 21.0068 21.0043 19.1775V7.0652C21.0043 6.31918 20.7081 5.60387 20.1805 5.07652L17.4266 2.32262C16.8991 1.79527 16.1838 1.49902 15.4379 1.49902Z" fill="var(--fill-0, #53D39C)"/>
<path id="Vector_2" d="M15.3631 9.11267C15.1435 8.89306 14.7872 8.89306 14.5676 9.11267L11.9719 11.7084L9.3762 9.11267C9.15659 8.89306 8.80034 8.89306 8.58073 9.11267C8.36112 9.33228 8.36112 9.68853 8.58073 9.90813L11.1764 12.5038L8.58049 15.0995C8.36088 15.3192 8.36088 15.6754 8.58049 15.895C8.69042 16.0049 8.83432 16.0598 8.97823 16.0598C9.12213 16.0598 9.26604 16.0049 9.37596 15.895L11.9719 13.2993L14.5674 15.895C14.6773 16.0049 14.8212 16.0598 14.9651 16.0598C15.109 16.0598 15.2529 16.0049 15.3628 15.895C15.5824 15.6754 15.5824 15.3192 15.3628 15.0995L12.7674 12.5038L15.3631 9.90813C15.5827 9.68853 15.5827 9.33228 15.3631 9.11267ZM20.1804 5.07603L17.4265 2.32212C17.0314 1.92703 16.5276 1.65859 15.9792 1.55103V4.64196C15.9792 5.62329 16.7747 6.41876 17.756 6.41876H20.9288C20.8088 5.9104 20.5497 5.44547 20.1804 5.07603Z" fill="var(--fill-0, #25BF79)"/>
<path id="Vector_3" d="M12.7674 12.2226L15.3631 9.62692C15.5827 9.40731 15.5827 9.05106 15.3631 8.83146C15.1435 8.61185 14.7872 8.61185 14.5676 8.83146L11.9719 11.4272L9.3762 8.83146C9.15659 8.61185 8.80034 8.61185 8.58073 8.83146C8.36112 9.05106 8.36112 9.40731 8.58073 9.62692L11.1764 12.2226L8.58049 14.8183C8.36088 15.0379 8.36088 15.3942 8.58049 15.6138C8.69042 15.7237 8.83432 15.7786 8.97823 15.7786C9.12213 15.7786 9.26604 15.7237 9.37596 15.6138L11.9719 13.0181L14.5674 15.6138C14.6773 15.7237 14.8212 15.7786 14.9651 15.7786C15.109 15.7786 15.2529 15.7237 15.3628 15.6138C15.5824 15.3942 15.5824 15.0379 15.3628 14.8183L12.7674 12.2226Z" fill="var(--fill-0, white)"/>
</g>
</svg>
