<svg width="16" height="16" viewBox="0 0 16 16" fill="none" xmlns="http://www.w3.org/2000/svg">
<path d="M4.00001 9.3334L5.00001 7.40006C5.10873 7.18416 5.27409 7.00187 5.47842 6.8727C5.68274 6.74352 5.91834 6.67233 6.16001 6.66673H13.3333M13.3333 6.66673C13.537 6.66637 13.7381 6.71269 13.9211 6.80212C14.1041 6.89155 14.2642 7.02172 14.3891 7.18264C14.5139 7.34356 14.6003 7.53095 14.6415 7.73043C14.6827 7.92991 14.6776 8.13618 14.6267 8.3334L13.6 12.3334C13.5257 12.6211 13.3575 12.8758 13.122 13.0569C12.8864 13.2381 12.5971 13.3354 12.3 13.3334H2.66668C2.31305 13.3334 1.97392 13.1929 1.72387 12.9429C1.47382 12.6928 1.33334 12.3537 1.33334 12.0001V3.3334C1.33334 2.97978 1.47382 2.64064 1.72387 2.39059C1.97392 2.14054 2.31305 2.00006 2.66668 2.00006H5.26668C5.48967 1.99788 5.70965 2.05166 5.90648 2.15648C6.10331 2.2613 6.2707 2.41381 6.39334 2.60006L6.93334 3.40006C7.05475 3.58442 7.22003 3.73574 7.41434 3.84047C7.60866 3.94519 7.82594 4.00003 8.04668 4.00006H12C12.3536 4.00006 12.6928 4.14054 12.9428 4.39059C13.1929 4.64064 13.3333 4.97978 13.3333 5.3334V6.66673Z" stroke="black" stroke-linecap="round" stroke-linejoin="round"/>
</svg>
