<svg width="16" height="16" viewBox="0 0 16 16" fill="none" xmlns="http://www.w3.org/2000/svg">
<path d="M10.6667 4.00039L5.05734 9.72439C4.80724 9.97449 4.66674 10.3137 4.66674 10.6674C4.66674 11.0211 4.80724 11.3603 5.05734 11.6104C5.30744 11.8605 5.64665 12.001 6.00034 12.001C6.35403 12.001 6.69324 11.8605 6.94334 11.6104L12.5527 5.88639C13.0528 5.38628 13.3337 4.70798 13.3337 4.00072C13.3337 3.29346 13.0528 2.61516 12.5527 2.11505C12.0526 1.61494 11.3743 1.33398 10.667 1.33398C9.95975 1.33398 9.28145 1.61494 8.78134 2.11505L3.19534 7.81572C2.81894 8.18604 2.51958 8.62722 2.31454 9.11381C2.1095 9.6004 2.00282 10.1228 2.00067 10.6508C1.99852 11.1788 2.10094 11.702 2.30201 12.1903C2.50309 12.6785 2.79884 13.1221 3.17221 13.4955C3.54559 13.8689 3.98919 14.1646 4.47743 14.3657C4.96568 14.5668 5.4889 14.6692 6.01693 14.6671C6.54495 14.6649 7.06733 14.5582 7.55392 14.3532C8.04051 14.1481 8.48169 13.8488 8.85201 13.4724L14.438 7.77172" stroke="black" stroke-linecap="round" stroke-linejoin="round"/>
</svg>
