<svg width="16" height="16" viewBox="0 0 16 16" fill="none" xmlns="http://www.w3.org/2000/svg">
<path d="M11.6317 7.4V4.4C11.6317 4.08174 11.5053 3.77652 11.2803 3.55147C11.0552 3.32643 10.75 3.2 10.4317 3.2C10.1135 3.2 9.80824 3.32643 9.5832 3.55147C9.35815 3.77652 9.23173 4.08174 9.23173 4.4M6.83173 7.1L6.83173 4.4V3.2C6.83173 2.88174 6.95815 2.57652 7.1832 2.35147C7.40824 2.12643 7.71347 2 8.03173 2C8.34999 2 8.65521 2.12643 8.88025 2.35147C9.1053 2.57652 9.23173 2.88174 9.23173 3.2V6.8M6.83173 4.4C6.83173 4.08174 6.7053 3.77652 6.48025 3.55147C6.25521 3.32643 5.94999 3.2 5.63173 3.2C5.31347 3.2 5.00824 3.32643 4.7832 3.55147C4.55815 3.77652 4.43173 4.08174 4.43173 4.4V9.2M11.6317 5.6C11.6317 5.28174 11.7582 4.97652 11.9832 4.75147C12.2082 4.52643 12.5135 4.4 12.8317 4.4C13.15 4.4 13.4552 4.52643 13.6803 4.75147C13.9053 4.97652 14.0317 5.28174 14.0317 5.6V9.2C14.0317 10.473 13.526 11.6939 12.6258 12.5941C11.7257 13.4943 10.5048 14 9.23173 14H8.03173C6.35173 14 5.33173 13.484 4.43773 12.596L2.27773 10.436C2.07129 10.2074 1.96068 9.9081 1.9688 9.60016C1.97692 9.29223 2.10315 8.99921 2.32136 8.78178C2.53956 8.56434 2.83303 8.43915 3.14099 8.43212C3.44895 8.42509 3.74782 8.53675 3.97573 8.744L5.03173 9.8" stroke="black" stroke-linecap="round" stroke-linejoin="round"/>
</svg>
