<svg width="16" height="16" viewBox="0 0 16 16" fill="none" xmlns="http://www.w3.org/2000/svg">
<g clip-path="url(#clip0_591_1489)">
<path d="M7.99999 11.9998V3.3331M7.99999 11.9998C8.00037 12.3643 8.07548 12.7248 8.22068 13.0591C8.36587 13.3935 8.57806 13.6945 8.84415 13.9436C9.11023 14.1927 9.42456 14.3846 9.76773 14.5075C10.1109 14.6304 10.4756 14.6816 10.8393 14.658C11.2031 14.6344 11.5581 14.5365 11.8825 14.3703C12.2069 14.2041 12.4938 13.9731 12.7255 13.6917C12.9571 13.4103 13.1286 13.0844 13.2294 12.7341C13.3302 12.3838 13.358 12.0166 13.3113 11.6551M7.99999 11.9998C7.9996 12.3643 7.92449 12.7248 7.77929 13.0591C7.6341 13.3935 7.42191 13.6945 7.15583 13.9436C6.88974 14.1927 6.57541 14.3846 6.23224 14.5075C5.88908 14.6304 5.52437 14.6816 5.16064 14.658C4.7969 14.6344 4.44187 14.5365 4.11746 14.3703C3.79306 14.2041 3.50617 13.9731 3.27451 13.6917C3.04285 13.4103 2.87134 13.0844 2.77058 12.7341C2.66981 12.3838 2.64193 12.0166 2.68865 11.6551M7.99999 3.3331C7.99997 3.02631 8.07053 2.72364 8.20621 2.44849C8.34189 2.17334 8.53905 1.93309 8.78243 1.74633C9.02581 1.55956 9.3089 1.43129 9.60979 1.37144C9.91068 1.31159 10.2213 1.32176 10.5176 1.40116C10.814 1.48056 11.0881 1.62707 11.3187 1.82935C11.5493 2.03163 11.7304 2.28426 11.8478 2.56769C11.9652 2.85113 12.0158 3.15777 11.9957 3.46389C11.9756 3.77002 11.8854 4.06742 11.732 4.3331M7.99999 3.3331C8 3.02631 7.92944 2.72364 7.79376 2.44849C7.65808 2.17334 7.46092 1.93309 7.21754 1.74633C6.97416 1.55956 6.69107 1.43129 6.39018 1.37144C6.08929 1.31159 5.77867 1.32176 5.48234 1.40116C5.18601 1.48056 4.91192 1.62707 4.68127 1.82935C4.45062 2.03163 4.2696 2.28426 4.15221 2.56769C4.03481 2.85113 3.9842 3.15777 4.00427 3.46389C4.02435 3.77002 4.11458 4.06742 4.26799 4.3331M9.99999 8.66643C9.42319 8.49782 8.91655 8.14685 8.55599 7.6661C8.19542 7.18534 8.00035 6.6007 7.99999 5.99976C7.99963 6.6007 7.80455 7.18534 7.44399 7.6661C7.08342 8.14685 6.57679 8.49782 5.99999 8.66643M11.998 3.41643C12.3899 3.51719 12.7537 3.7058 13.0618 3.96797C13.37 4.23015 13.6145 4.55901 13.7768 4.92966C13.939 5.30031 14.0148 5.70303 13.9984 6.10731C13.982 6.51158 13.8738 6.90683 13.682 7.2631M12 11.9998C12.587 11.9997 13.1576 11.806 13.6233 11.4487C14.089 11.0913 14.4237 10.5903 14.5757 10.0233C14.7276 9.45629 14.6882 8.855 14.4636 8.31267C14.239 7.77035 13.8417 7.31729 13.3333 7.02376M3.99999 11.9998C3.41298 11.9997 2.84239 11.806 2.3767 11.4487C1.911 11.0913 1.57623 10.5903 1.4243 10.0233C1.27237 9.45629 1.31177 8.855 1.5364 8.31267C1.76102 7.77035 2.15831 7.31729 2.66665 7.02376M4.00199 3.41643C3.61012 3.51719 3.24632 3.7058 2.93814 3.96797C2.62996 4.23015 2.38548 4.55901 2.22321 4.92966C2.06095 5.30031 1.98516 5.70303 2.00158 6.10731C2.018 6.51158 2.1262 6.90683 2.31799 7.2631" stroke="black" stroke-linecap="round" stroke-linejoin="round"/>
</g>
<defs><clipPath id="clip0_591_1489"><rect width="16" height="16" fill="white"/></clipPath></defs>
</svg>
