<svg width="16" height="16" viewBox="0 0 16 16" fill="none" xmlns="http://www.w3.org/2000/svg">
<g clip-path="url(#clip0_1150_2059)">
<path d="M6.06002 6.00045C6.21675 5.55489 6.52612 5.17919 6.93332 4.93987C7.34052 4.70055 7.81928 4.61307 8.2848 4.69292C8.75032 4.77277 9.17256 5.0148 9.47674 5.37613C9.78091 5.73747 9.94739 6.1948 9.94668 6.66711C9.94668 8.00045 7.94668 8.66711 7.94668 8.66711M8.00002 11.3338H8.00668M1.99468 10.8951C2.09271 11.1424 2.11453 11.4133 2.05735 11.6731L1.34735 13.8664C1.32447 13.9777 1.33039 14.0929 1.36453 14.2012C1.39868 14.3095 1.45993 14.4073 1.54246 14.4853C1.625 14.5633 1.72609 14.6189 1.83615 14.6469C1.94621 14.6749 2.06159 14.6742 2.17135 14.6451L4.44668 13.9798C4.69183 13.9312 4.9457 13.9524 5.17935 14.0411C6.60294 14.7059 8.2156 14.8466 9.73279 14.4383C11.25 14.0299 12.5742 13.0989 13.4718 11.8094C14.3694 10.5198 14.7828 8.95472 14.6389 7.39015C14.495 5.82557 13.8031 4.36209 12.6854 3.25791C11.5676 2.15373 10.0958 1.47981 8.52961 1.35504C6.96339 1.23028 5.40344 1.6627 4.12498 2.57601C2.84652 3.48931 1.93171 4.82481 1.54195 6.34687C1.15219 7.86894 1.31253 9.47975 1.99468 10.8951Z" stroke="black" stroke-linecap="round" stroke-linejoin="round"/>
</g>
<defs><clipPath id="clip0_1150_2059"><rect width="16" height="16" fill="white"/></clipPath></defs>
</svg>
