<svg width="16" height="16" viewBox="0 0 16 16" fill="none" xmlns="http://www.w3.org/2000/svg">
<path d="M9.33335 1.33301H4.00002C3.6464 1.33301 3.30726 1.47349 3.05721 1.72353C2.80716 1.97358 2.66669 2.31272 2.66669 2.66634V13.333C2.66669 13.6866 2.80716 14.0258 3.05721 14.2758C3.30726 14.5259 3.6464 14.6663 4.00002 14.6663H12C12.3536 14.6663 12.6928 14.5259 12.9428 14.2758C13.1929 14.0258 13.3334 13.6866 13.3334 13.333V5.33301M9.33335 1.33301C9.54439 1.33267 9.75341 1.37408 9.94837 1.45486C10.1433 1.53563 10.3204 1.65418 10.4694 1.80368L12.8614 4.19568C13.0112 4.34468 13.1301 4.52191 13.2111 4.71712C13.2922 4.91233 13.3337 5.12166 13.3334 5.33301M9.33335 1.33301L9.33335 4.66634C9.33335 4.84315 9.40359 5.01272 9.52862 5.13775C9.65364 5.26277 9.82321 5.33301 10 5.33301L13.3334 5.33301M5.33335 8.66634H6.66669M9.33335 8.66634H10.6667M5.33335 11.333H6.66669M9.33335 11.333H10.6667" stroke="black" stroke-linecap="round" stroke-linejoin="round"/>
</svg>
