<svg width="16" height="16" viewBox="0 0 16 16" fill="none" xmlns="http://www.w3.org/2000/svg">
<path d="M2.66665 8.09968V2.66635C2.66665 2.31272 2.80712 1.97359 3.05717 1.72354C3.30722 1.47349 3.64636 1.33301 3.99998 1.33301H9.33331M9.33331 1.33301C9.54457 1.33249 9.75384 1.37382 9.94905 1.4546C10.1443 1.53538 10.3215 1.65403 10.4706 1.80368L12.8626 4.19568C13.0123 4.34479 13.1309 4.52207 13.2117 4.71728C13.2925 4.91248 13.3338 5.12175 13.3333 5.33301M9.33331 1.33301V4.66635C9.33331 4.84316 9.40355 5.01273 9.52857 5.13775C9.6536 5.26277 9.82317 5.33301 9.99998 5.33301H13.3333M13.3333 5.33301V13.333C13.3333 13.6866 13.1928 14.0258 12.9428 14.2758C12.6927 14.5259 12.3536 14.6663 12 14.6663H9.76665M3.33331 10.6663L1.33331 12.6663L3.33331 14.6663M5.99998 14.6663L7.99998 12.6663L5.99998 10.6663" stroke="black" stroke-linecap="round" stroke-linejoin="round"/>
</svg>
