<svg width="40" height="40" viewBox="0 0 40 40" fill="none" xmlns="http://www.w3.org/2000/svg">
<rect width="40" height="40" rx="8" fill="black"/>
<path d="M13.7503 13.7504H13.7607M13.7503 26.2504H13.7607M11.6669 9.58374H28.3336C29.4842 9.58374 30.4169 10.5165 30.4169 11.6671V15.8337C30.4169 16.9843 29.4842 17.9171 28.3336 17.9171H11.6669C10.5163 17.9171 9.58359 16.9843 9.58359 15.8337V11.6671C9.58359 10.5165 10.5163 9.58374 11.6669 9.58374ZM11.6669 22.0837H28.3336C29.4842 22.0837 30.4169 23.0165 30.4169 24.1671V28.3337C30.4169 29.4843 29.4842 30.4171 28.3336 30.4171H11.6669C10.5163 30.4171 9.58359 29.4843 9.58359 28.3337V24.1671C9.58359 23.0165 10.5163 22.0837 11.6669 22.0837Z" stroke="white" stroke-width="2.5" stroke-linecap="round" stroke-linejoin="round"/>
</svg>
