<svg width="16" height="16" viewBox="0 0 16 16" fill="none" xmlns="http://www.w3.org/2000/svg">
<rect width="16" height="16" rx="8" fill="black"/>
<g clip-path="url(#clip0_528_1785)">
<path d="M5.5001 5.50016H5.50427M5.5001 10.5002H5.50427M4.66677 3.8335H11.3334C11.7937 3.8335 12.1668 4.20659 12.1668 4.66683V6.3335C12.1668 6.79373 11.7937 7.16683 11.3334 7.16683H4.66677C4.20653 7.16683 3.83344 6.79373 3.83344 6.3335V4.66683C3.83344 4.20659 4.20653 3.8335 4.66677 3.8335ZM4.66677 8.8335H11.3334C11.7937 8.8335 12.1668 9.20659 12.1668 9.66683V11.3335C12.1668 11.7937 11.7937 12.1668 11.3334 12.1668H4.66677C4.20653 12.1668 3.83344 11.7937 3.83344 11.3335V9.66683C3.83344 9.20659 4.20653 8.8335 4.66677 8.8335Z" stroke="white" stroke-linecap="round" stroke-linejoin="round"/>
</g>
<defs>
<clipPath id="clip0_528_1785">
<rect width="10" height="10" fill="white" transform="translate(3 3)"/>
</clipPath>
</defs>
</svg>
