<svg width="40" height="40" viewBox="0 0 40 40" fill="none" xmlns="http://www.w3.org/2000/svg">
<rect width="40" height="40" rx="8" fill="#3AA2EB"/>
<path d="M29.2415 17.3216C29.2014 17.4955 29.0975 17.7534 28.9535 18.0612H28.9576L28.9415 18.0911C28.1017 19.8861 25.9101 23.4079 25.9101 23.4079L25.9001 23.3839L25.2601 24.4992H28.3456L22.4509 32.3325L23.7905 27.0037H21.3611L22.2049 23.48C21.5232 23.6439 20.7152 23.8696 19.7594 24.1774C19.7594 24.1774 18.4677 24.9331 16.0363 22.7225C16.0363 22.7225 14.3965 21.2772 15.3485 20.9175C15.7523 20.7637 17.3099 20.5677 18.5357 20.4037C20.1953 20.18 21.2131 20.0601 21.2131 20.0601C21.2131 20.0601 16.1042 20.1359 14.8925 19.9461C13.6806 19.7562 12.143 17.7334 11.8151 15.9564C11.8151 15.9564 11.3091 14.981 12.9049 15.4426C14.5006 15.9045 21.1051 17.2417 21.1051 17.2417C21.1051 17.2417 12.517 14.6093 11.943 13.9655C11.3711 13.326 10.2614 10.4597 10.4054 8.70084C10.4054 8.70084 10.4674 8.26107 10.9193 8.38093C10.9193 8.38093 17.2699 11.2793 21.611 12.8683C25.9541 14.4574 29.7292 15.2649 29.2415 17.3216Z" fill="white"/>
</svg>
