<svg width="16" height="16" viewBox="0 0 16 16" fill="none" xmlns="http://www.w3.org/2000/svg">
<g clip-path="url(#clip0_528_1774)">
<path d="M8.00006 0C3.58162 0 0 3.58162 0 8.00006C0 12.4184 3.58162 16 8.00006 16C12.4184 16 16 12.4184 16 8.00006C16 3.58162 12.4184 0 8.00006 0ZM11.6966 6.92867C11.6806 6.99821 11.639 7.10136 11.5814 7.2245H11.583L11.5766 7.23647C11.2407 7.95444 10.364 9.36318 10.364 9.36318L10.3601 9.35357L10.1041 9.7997H11.3382L8.98038 12.933L9.51621 10.8015H8.54442L8.88198 9.392C8.60927 9.45759 8.28608 9.54786 7.90378 9.67098C7.90378 9.67098 7.38707 9.97325 6.4145 9.089C6.4145 9.089 5.7586 8.51089 6.13938 8.367C6.30093 8.30548 6.92397 8.22709 7.41428 8.16152C8.07812 8.072 8.48523 8.02404 8.48523 8.02404C8.48523 8.02404 6.44168 8.05439 5.95699 7.97844C5.47224 7.9025 4.85722 7.09336 4.72602 6.38256C4.72602 6.38256 4.52366 5.99241 5.16196 6.17707C5.80024 6.36183 8.44205 6.8967 8.44205 6.8967C8.44205 6.8967 5.0068 5.84373 4.7772 5.58624C4.54845 5.33042 4.10457 4.18389 4.16216 3.48035C4.16216 3.48035 4.18697 3.30444 4.36774 3.35239C4.36774 3.35239 6.90797 4.51174 8.64442 5.14734C10.3817 5.78297 11.8917 6.10596 11.6966 6.92867Z" fill="#3AA2EB"/>
</g>
<defs>
<clipPath id="clip0_528_1774">
<rect width="16" height="16" fill="white"/>
</clipPath>
</defs>
</svg>
