<svg width="16" height="16" viewBox="0 0 16 16" fill="none" xmlns="http://www.w3.org/2000/svg">
<g clip-path="url(#clip0_528_1801)">
<path d="M0 8C0 10.1217 0.842855 12.1566 2.34315 13.6569C3.84344 15.1571 5.87827 16 8 16C10.1217 16 12.1566 15.1571 13.6569 13.6569C15.1571 12.1566 16 10.1217 16 8C16 5.87827 15.1571 3.84344 13.6569 2.34315C12.1566 0.842855 10.1217 0 8 0C5.87827 0 3.84344 0.842855 2.34315 2.34315C0.842855 3.84344 0 5.87827 0 8Z" fill="#738BD8"/>
<path d="M2.98303 3.66101H13.0169V11.1186H2.98303V3.66101Z" fill="white"/>
<path d="M10.9087 14.5668L2.45766 13.482C1.54469 13.3648 1.59204 10.495 1.67235 9.57806L2.07913 4.934C2.15944 4.01703 3.24094 3.05556 4.15257 2.92834L11.4407 1.91139C12.3524 1.7842 14.2101 5.23404 14.1921 6.15432L14.0565 13.1091M8.00004 4.69331C6.21337 4.69331 4.96004 5.45998 4.96004 5.45998C5.64671 4.84665 6.84671 4.49331 6.84671 4.49331L6.73337 4.37998C5.60671 4.39998 4.58671 5.17998 4.58671 5.17998C3.44004 7.57331 3.51337 9.63998 3.51337 9.63998C4.44671 10.8467 5.83337 10.76 5.83337 10.76L6.30671 10.16C5.47337 9.97998 4.94671 9.23998 4.94671 9.23998C4.94671 9.23998 6.20004 10.0933 8.00004 10.0933C9.80004 10.0933 11.0534 9.23998 11.0534 9.23998C11.0534 9.23998 10.5267 9.97998 9.69337 10.16L10.1667 10.76C10.1667 10.76 11.5534 10.8467 12.4867 9.63998C12.4867 9.63998 12.56 7.57331 11.4134 5.17998C11.4134 5.17998 10.3934 4.39998 9.26671 4.37998L9.15337 4.49331C9.15337 4.49331 10.3534 4.84665 11.04 5.45998C11.04 5.45998 9.78671 4.69331 8.00004 4.69331ZM6.62004 7.21998C7.05337 7.21998 7.40671 7.59998 7.40004 8.06665C7.40004 8.52665 7.05337 8.91331 6.62004 8.91331C6.19337 8.91331 5.84671 8.52665 5.84671 8.06665C5.84671 7.59998 6.18671 7.21998 6.62004 7.21998ZM9.40004 7.21998C9.83336 7.21998 10.18 7.59998 10.18 8.06665C10.18 8.52665 9.83336 8.91331 9.40004 8.91331C8.97336 8.91331 8.62671 8.52665 8.62671 8.06665C8.62671 7.59998 8.96671 7.21998 9.40004 7.21998Z" fill="#738BD8"/>
</g>
<defs>
<clipPath id="clip0_528_1801">
<rect width="16" height="16" fill="white"/>
</clipPath>
</defs>
</svg>
