<svg width="40" height="40" viewBox="0 0 40 40" fill="none" xmlns="http://www.w3.org/2000/svg">
<rect width="40" height="40" rx="8" fill="#738BD8"/>
<path d="M20.0001 11.7333C15.5334 11.7333 12.4001 13.65 12.4001 13.65C14.1168 12.1166 17.1168 11.2333 17.1168 11.2333L16.8334 10.95C14.0168 11 11.4668 12.95 11.4668 12.95C8.6001 18.9333 8.78342 24.1 8.78342 24.1C11.1168 27.1166 14.5834 26.9 14.5834 26.9L15.7668 25.4C13.6834 24.95 12.3668 23.1 12.3668 23.1C12.3668 23.1 15.5001 25.2333 20.0001 25.2333C24.5001 25.2333 27.6334 23.1 27.6334 23.1C27.6334 23.1 26.3168 24.95 24.2334 25.4L25.4168 26.9C25.4168 26.9 28.8834 27.1166 31.2168 24.1C31.2168 24.1 31.4001 18.9333 28.5334 12.95C28.5334 12.95 25.9834 11 23.1668 10.95L22.8834 11.2333C22.8834 11.2333 25.8834 12.1166 27.6001 13.65C27.6001 13.65 24.4668 11.7333 20.0001 11.7333ZM16.5501 18.05C17.6334 18.05 18.5168 19 18.5001 20.1666C18.5001 21.3166 17.6334 22.2833 16.5501 22.2833C15.4834 22.2833 14.6168 21.3166 14.6168 20.1666C14.6168 19 15.4668 18.05 16.5501 18.05ZM23.5001 18.05C24.5834 18.05 25.4501 19 25.4501 20.1666C25.4501 21.3166 24.5834 22.2833 23.5001 22.2833C22.4334 22.2833 21.5668 21.3166 21.5668 20.1666C21.5668 19 22.4168 18.05 23.5001 18.05Z" fill="white"/>
</svg>
