<svg width="40" height="40" viewBox="0 0 40 40" fill="none" xmlns="http://www.w3.org/2000/svg">
<rect width="40" height="40" rx="8" fill="#00D6B9"/>
<path d="M8.7512 16.4684L8.75 16.745L8.766 24.011L8.7568 25.4602L8.7672 26.0812L8.7786 26.2934L8.795 26.4396L8.7982 26.4576C8.8002 26.469 8.8026 26.479 8.805 26.488C8.851 26.6608 8.9504 26.81 9.1036 26.9486C9.2394 27.0714 9.406 27.1798 9.659 27.3192C10.8882 27.9938 12.067 28.4892 13.268 28.8278C14.5116 29.1784 15.7948 29.366 17.1792 29.396C18.6098 29.427 19.9448 29.2778 21.2502 28.9466C22.5002 28.6294 23.7384 28.1414 25.0464 27.4612C26.0202 26.9546 27.0804 26.163 28.053 25.2262L28.3978 24.884L28.7294 24.5346L28.864 24.383L28.7876 24.427L28.5054 24.5706L28.4028 24.6192C27.3072 25.1268 26.169 25.2708 24.9006 25.1186L24.5138 25.065L24.13 24.997L24.033 24.977L23.935 24.9562L23.529 24.8602L23.4228 24.8328L23.3144 24.804L22.8532 24.6728L22.7714 24.6484C22.7164 24.632 22.6604 24.615 22.603 24.5974L21.7522 24.3258L21.3374 24.1878L20.125 23.7496L19.529 23.5256L19.0198 23.3272L18.7478 23.2156L18.4584 23.085L18.431 23.0712C18.4029 23.0572 18.3756 23.0416 18.3492 23.0246L17.9572 22.8288L16.9316 22.3482L16.2938 22.0328L16.065 21.9136C14.9214 21.3104 13.791 20.5966 12.667 19.7762C11.5824 18.9846 10.5102 18.0986 9.4328 17.1136L8.8934 16.6128L8.7512 16.4684ZM30.381 16.1754L29.975 16.1838L29.8196 16.1918C29.2089 16.2261 28.6032 16.3226 28.012 16.4796C27.4709 16.6255 26.9457 16.825 26.4442 17.0752C25.9312 17.3316 25.444 17.6365 24.9892 17.9858L24.735 18.1856L24.673 18.2356L24.6114 18.2866L24.3626 18.4988L24.0998 18.7348L23.8086 19.007L22.4468 20.3294L22.356 20.4158C21.697 21.0398 21.2054 21.453 20.6398 21.8422L20.4164 21.9922L19.8268 22.3738L19.742 22.4272C19.6306 22.4972 19.525 22.562 19.4252 22.6218L19.131 22.7914L19.5616 22.9624L20.8286 23.4354L21.6138 23.7144L22.5 24.003L23.0022 24.1574L23.4498 24.285L23.5548 24.313C23.6586 24.3406 23.7588 24.3658 23.8566 24.389L24.2364 24.4722L24.3288 24.4902L24.4204 24.5072L24.7858 24.5652L24.8778 24.5772L24.9704 24.589C26.1674 24.7328 27.2294 24.5898 28.251 24.0944C29.5588 23.46 30.177 22.812 31.0406 21.2332L31.3226 20.7026L31.7672 19.8342L31.9624 19.4586L32.0224 19.344C32.6198 18.2124 33.0702 17.5204 33.6896 16.8808L33.75 16.8188L33.6048 16.763L33.4268 16.6992L33.0554 16.5762L32.7378 16.4816L32.5946 16.444C32.0021 16.2961 31.3961 16.2089 30.786 16.184L30.381 16.1754ZM12.987 10.65L13.343 10.9064L13.8472 11.2768L14.0492 11.4284C14.6201 11.8584 15.1762 12.3076 15.7166 12.7752C16.4801 13.4388 17.2078 14.1424 17.8966 14.8832C18.5366 15.5688 19.0906 16.2028 19.6012 16.8372C20.0012 17.334 20.3812 17.8388 20.7538 18.3694L21.191 19.0116L21.8974 20.135L22.3384 19.7258L23.007 19.0854L23.391 18.7252L23.8966 18.2626L24.0138 18.1586C24.336 17.8724 24.6698 17.5995 25.0144 17.3406C25.2928 17.1322 25.6244 16.9278 25.992 16.7348C26.2475 16.6015 26.5084 16.4787 26.774 16.3668L27.2202 16.1904L27.4622 16.1102L27.4562 16.0746L27.443 16.0208C27.3874 15.8006 27.2936 15.5218 27.1694 15.2036L26.9916 14.7696L26.9504 14.6736C26.6724 14.0346 26.3392 13.3746 26.0896 12.9636L25.5882 12.188L25.3116 11.7836L25.2646 11.7176C24.8916 11.1992 24.596 10.8832 24.3438 10.7676C24.1736 10.6894 24.0256 10.6596 23.7684 10.6528H23.4698L23.2542 10.656L13.0688 10.6546L12.987 10.65Z" fill="white"/>
</svg>
