<svg width="16" height="16" viewBox="0 0 16 16" fill="none" xmlns="http://www.w3.org/2000/svg">
<g clip-path="url(#clip0_528_1776)">
<path d="M8 0C12.4182 0 16 3.58176 16 8C16 12.4182 12.4182 16 8 16C3.58176 16 0 12.4182 0 8C0 3.58176 3.58176 0 8 0ZM3.50048 6.58736L3.5 6.698L3.5064 9.6044L3.50272 10.1841L3.50688 10.4325L3.51144 10.5174L3.518 10.5758L3.51928 10.583C3.52008 10.5876 3.52104 10.5916 3.522 10.5952C3.5404 10.6643 3.58016 10.724 3.64144 10.7794C3.69576 10.8286 3.7624 10.8719 3.8636 10.9277C4.35528 11.1975 4.8268 11.3957 5.3072 11.5311C5.80464 11.6714 6.31792 11.7464 6.87168 11.7584C7.44392 11.7708 7.97792 11.7111 8.50008 11.5786C9.00008 11.4518 9.49536 11.2566 10.0186 10.9845C10.4081 10.7818 10.8322 10.4652 11.2212 10.0905L11.3591 9.9536L11.4918 9.81384L11.5456 9.7532L11.515 9.7708L11.4022 9.82824L11.3611 9.84768C10.9229 10.0507 10.4676 10.1083 9.96024 10.0474L9.80552 10.026L9.652 9.9988L9.6132 9.9908L9.574 9.98248L9.4116 9.94408L9.36912 9.93312L9.32576 9.9216L9.14128 9.86912L9.10856 9.85936C9.08656 9.8528 9.06416 9.846 9.0412 9.83896L8.70088 9.73032L8.53496 9.67512L8.05 9.49984L7.8116 9.41024L7.60792 9.33088L7.49912 9.28624L7.38336 9.234L7.3724 9.22848C7.36117 9.22285 7.35025 9.21663 7.33968 9.20984L7.18288 9.13152L6.77264 8.93928L6.51752 8.81312L6.426 8.76544C5.96856 8.52416 5.5164 8.23864 5.0668 7.91048C4.63296 7.59384 4.20408 7.23944 3.77312 6.84544L3.55736 6.64512L3.50048 6.58736ZM12.1524 6.47016L11.99 6.47352L11.9278 6.47672C11.6835 6.49045 11.4413 6.52902 11.2048 6.59184C10.9884 6.65019 10.7783 6.73 10.5777 6.83008C10.3725 6.93262 10.1776 7.05459 9.99568 7.19432L9.894 7.27424L9.8692 7.29424L9.84456 7.31464L9.74504 7.39952L9.63992 7.49392L9.52344 7.6028L8.97872 8.13176L8.9424 8.16632C8.6788 8.41592 8.48216 8.5812 8.25592 8.73688L8.16656 8.79688L7.93072 8.94952L7.8968 8.97088C7.85224 8.99888 7.81 9.0248 7.77008 9.04872L7.6524 9.11656L7.82464 9.18496L8.33144 9.37416L8.64552 9.48576L9 9.6012L9.20088 9.66296L9.37992 9.714L9.42192 9.7252C9.46344 9.73624 9.50352 9.74632 9.54264 9.7556L9.69456 9.78888L9.73152 9.79608L9.76816 9.80288L9.91432 9.82608L9.95112 9.83088L9.98816 9.8356C10.467 9.89312 10.8918 9.83592 11.3004 9.63776C11.8235 9.384 12.0708 9.1248 12.4162 8.49328L12.529 8.28104L12.7069 7.93368L12.785 7.78344L12.809 7.7376C13.0479 7.28496 13.2281 7.00816 13.4758 6.75232L13.5 6.72752L13.4419 6.7052L13.3707 6.67968L13.2222 6.63048L13.0951 6.59264L13.0378 6.5776C12.8009 6.51841 12.5585 6.48357 12.3144 6.4736L12.1524 6.47016ZM5.1948 4.26L5.3372 4.36256L5.53888 4.51072L5.61968 4.57136C5.84802 4.74335 6.07047 4.92302 6.28664 5.11008C6.59204 5.3755 6.88312 5.65696 7.15864 5.95328C7.41464 6.22752 7.63624 6.48112 7.84048 6.73488C8.00048 6.9336 8.15248 7.13552 8.30152 7.34776L8.4764 7.60464L8.75896 8.054L8.93536 7.89032L9.2028 7.63416L9.3564 7.49008L9.55864 7.30504L9.60552 7.26344C9.7344 7.14895 9.86793 7.03979 10.0058 6.93624C10.1171 6.85288 10.2498 6.77112 10.3968 6.69392C10.499 6.64058 10.6034 6.59147 10.7096 6.54672L10.8881 6.47616L10.9849 6.44408L10.9825 6.42984L10.9772 6.40832C10.955 6.32024 10.9174 6.20872 10.8678 6.08144L10.7966 5.90784L10.7802 5.86944C10.669 5.61384 10.5357 5.34984 10.4358 5.18544L10.2353 4.8752L10.1246 4.71344L10.1058 4.68704C9.95664 4.47968 9.8384 4.35328 9.73752 4.30704C9.66944 4.27576 9.61024 4.26384 9.50736 4.26112H9.38792L9.30168 4.2624L5.22752 4.26184L5.1948 4.26Z" fill="#00D6B9"/>
</g>
<defs>
<clipPath id="clip0_528_1776">
<rect width="16" height="16" fill="white"/>
</clipPath>
</defs>
</svg>
