<svg width="40" height="40" viewBox="0 0 40 40" fill="none" xmlns="http://www.w3.org/2000/svg">
<rect width="40" height="40" rx="8" fill="#0087F3"/>
<path d="M26.2422 26.6524C26.0859 26.8047 26.0859 27.0508 26.2344 27.2031C26.25 27.2227 26.2695 27.2383 26.293 27.25C27.1562 28.0469 27.7148 29.1211 27.8711 30.2852C28.1133 31.1602 29.0312 31.6797 29.918 31.4375C30.7969 31.207 31.3203 30.3086 31.0898 29.4336C31.0898 29.4297 31.0859 29.4258 31.0859 29.418C30.9023 28.7617 30.332 28.2813 29.6523 28.2149C28.5586 28.0156 27.5625 27.4649 26.8086 26.6484C26.6484 26.5 26.3984 26.5 26.2422 26.6524ZM17.4258 7.78517C14.4414 8.10939 11.7305 9.37111 9.78515 11.3399C9.02734 12.0977 8.39843 12.9727 7.91796 13.9297C6.44531 16.8555 6.6914 20.3516 8.5625 23.0391C9.08984 23.8281 9.96093 24.8125 10.7539 25.5117L10.3945 28.2969L10.3555 28.4141C10.3437 28.4492 10.3437 28.4883 10.3398 28.5234L10.332 28.6133L10.3398 28.7031C10.3867 29.1992 10.8281 29.5625 11.3242 29.5195C11.4609 29.5078 11.5898 29.4649 11.707 29.3984H11.7227L11.7773 29.3594L12.6367 28.9375L15.1953 27.668C16.4102 28.0117 17.6719 28.1836 18.9375 28.1758C20.5 28.1797 22.0547 27.9141 23.5273 27.3867C22.793 27.1524 22.3203 26.4375 22.3945 25.668C20.8711 26.1524 19.2617 26.3086 17.6758 26.1328L17.4219 26.0977C16.8477 26.0234 16.2812 25.9063 15.7266 25.75C15.4219 25.6563 15.0977 25.6914 14.8164 25.8438L14.7461 25.8789L12.6406 27.1016L12.5508 27.1563C12.5 27.1836 12.4766 27.1953 12.4492 27.1953C12.3711 27.1914 12.3125 27.125 12.3164 27.0469L12.3945 26.7266L12.4883 26.3789L12.6406 25.8047L12.8164 25.1641C12.9336 24.8047 12.8047 24.4141 12.4961 24.1953C11.6719 23.5899 10.9531 22.8516 10.3711 22.0078C8.89062 19.8906 8.6914 17.1328 9.85156 14.8281C10.2383 14.0664 10.7461 13.3672 11.3516 12.7617C12.9492 11.1367 15.1914 10.1016 17.6758 9.83595C18.5352 9.7422 19.4023 9.7422 20.2617 9.83595C22.7305 10.1172 24.9648 11.1641 26.5547 12.7813C27.1562 13.3945 27.6562 14.0938 28.0352 14.8594C28.5234 15.8281 28.7773 16.9024 28.7812 17.9883C28.7812 18.1016 28.7695 18.2149 28.7656 18.3242C29.4219 17.9258 30.2656 18.0234 30.8125 18.5625L30.8867 18.6524C31.0156 17.043 30.6992 15.4297 29.9766 13.9844C29.5039 13.0274 28.8789 12.1563 28.1289 11.3945C26.0781 9.36329 23.3867 8.10157 20.5156 7.81251C19.4844 7.6797 18.4492 7.67579 17.4258 7.78517ZM33.7617 23.6211C33.4805 23.6953 33.2227 23.8438 33.0117 24.0508H33.0078C32.7383 24.3164 32.5703 24.6641 32.5312 25.0391C32.3281 26.125 31.7695 27.1133 30.9492 27.8516C30.793 28 30.7891 28.2461 30.9375 28.4024L30.9414 28.4063C31.0977 28.5625 31.3516 28.5664 31.5117 28.4102C31.5312 28.3906 31.5469 28.375 31.5586 28.3516C32.375 27.4961 33.4609 26.9453 34.6328 26.7969C35.5234 26.5586 36.0469 25.6563 35.8086 24.7813C35.5664 23.9024 34.6523 23.3828 33.7617 23.6211ZM27.4961 21.9805L27.4687 22.0078C26.6523 22.8945 25.5469 23.4649 24.3477 23.6172C23.4648 23.8477 22.9336 24.7383 23.168 25.6133C23.2422 25.8984 23.3984 26.1602 23.6094 26.3672C24.2617 27.0078 25.3164 27.0078 25.9687 26.3633C26.2344 26.0977 26.4023 25.75 26.4453 25.3789C26.6523 24.293 27.2109 23.3047 28.0352 22.5664C28.1953 22.4219 28.2109 22.1758 28.0703 22.0156L28.0664 22.0117C27.9102 21.8477 27.6602 21.8359 27.4961 21.9805ZM29.043 18.9883C28.7656 19.0625 28.5117 19.2109 28.3125 19.4102C27.6719 20.043 27.6641 21.0742 28.2969 21.7149L28.3164 21.7344C28.5859 22 28.9375 22.1641 29.3125 22.207C30.4062 22.4063 31.4062 22.9531 32.1602 23.7656C32.3164 23.9219 32.5664 23.9219 32.7227 23.7695C32.8789 23.6211 32.8828 23.375 32.7344 23.2188C32.7148 23.1992 32.6914 23.1797 32.668 23.1641C31.8047 22.3672 31.2461 21.2969 31.0898 20.1328C30.8516 19.2578 29.9336 18.7461 29.043 18.9883Z" fill="white"/>
</svg>
