<svg width="16" height="16" viewBox="0 0 16 16" fill="none" xmlns="http://www.w3.org/2000/svg">
<g clip-path="url(#clip0_528_1778)">
<path d="M8 0.03125C12.4016 0.03125 15.9688 3.59844 15.9688 8C15.9688 12.4016 12.4016 15.9688 8 15.9688C3.59844 15.9688 0.03125 12.4016 0.03125 8C0.03125 3.59844 3.59844 0.03125 8 0.03125ZM10.4969 10.6609C10.4344 10.7219 10.4344 10.8203 10.4937 10.8813C10.5 10.8891 10.5078 10.8953 10.5172 10.9C10.8625 11.2187 11.0859 11.6484 11.1484 12.1141C11.2453 12.4641 11.6125 12.6719 11.9672 12.575C12.3188 12.4828 12.5281 12.1234 12.4359 11.7734C12.4359 11.7719 12.4344 11.7703 12.4344 11.7672C12.3609 11.5047 12.1328 11.3125 11.8609 11.2859C11.4234 11.2062 11.025 10.9859 10.7234 10.6594C10.6594 10.6 10.5594 10.6 10.4969 10.6609ZM6.97031 3.11406C5.77656 3.24375 4.69219 3.74844 3.91406 4.53594C3.61094 4.83906 3.35937 5.18906 3.16719 5.57188C2.57812 6.74219 2.67656 8.14062 3.425 9.21562C3.63594 9.53125 3.98437 9.925 4.30156 10.2047L4.15781 11.3188L4.14219 11.3656C4.1375 11.3797 4.1375 11.3953 4.13594 11.4094L4.13281 11.4453L4.13594 11.4812C4.15469 11.6797 4.33125 11.825 4.52969 11.8078C4.58437 11.8031 4.63594 11.7859 4.68281 11.7594H4.68906L4.71094 11.7437L5.05469 11.575L6.07812 11.0672C6.56406 11.2047 7.06875 11.2734 7.575 11.2703C8.2 11.2719 8.82187 11.1656 9.41094 10.9547C9.11719 10.8609 8.92812 10.575 8.95781 10.2672C8.34844 10.4609 7.70469 10.5234 7.07031 10.4531L6.96875 10.4391C6.73906 10.4094 6.5125 10.3625 6.29063 10.3C6.16875 10.2625 6.03906 10.2766 5.92656 10.3375L5.89844 10.3516L5.05625 10.8406L5.02031 10.8625C5 10.8734 4.99063 10.8781 4.97969 10.8781C4.94844 10.8766 4.925 10.85 4.92656 10.8188L4.95781 10.6906L4.99531 10.5516L5.05625 10.3219L5.12656 10.0656C5.17344 9.92188 5.12187 9.76563 4.99844 9.67813C4.66875 9.43594 4.38125 9.14063 4.14844 8.80313C3.55625 7.95625 3.47656 6.85313 3.94062 5.93125C4.09531 5.62656 4.29844 5.34688 4.54063 5.10469C5.17969 4.45469 6.07656 4.04063 7.07031 3.93438C7.41406 3.89688 7.76094 3.89688 8.10469 3.93438C9.09219 4.04688 9.98594 4.46563 10.6219 5.1125C10.8625 5.35781 11.0625 5.6375 11.2141 5.94375C11.4094 6.33125 11.5109 6.76094 11.5125 7.19531C11.5125 7.24063 11.5078 7.28594 11.5063 7.32969C11.7688 7.17031 12.1062 7.20938 12.325 7.425L12.3547 7.46094C12.4063 6.81719 12.2797 6.17188 11.9906 5.59375C11.8016 5.21094 11.5516 4.8625 11.2516 4.55781C10.4312 3.74531 9.35469 3.24063 8.20625 3.125C7.79375 3.07187 7.37969 3.07031 6.97031 3.11406ZM13.5047 9.44844C13.3922 9.47813 13.2891 9.5375 13.2047 9.62031H13.2031C13.0953 9.72656 13.0281 9.86562 13.0125 10.0156C12.9312 10.45 12.7078 10.8453 12.3797 11.1406C12.3172 11.2 12.3156 11.2984 12.375 11.3609L12.3766 11.3625C12.4391 11.425 12.5406 11.4266 12.6047 11.3641C12.6125 11.3562 12.6188 11.35 12.6234 11.3406C12.95 10.9984 13.3844 10.7781 13.8531 10.7188C14.2094 10.6234 14.4188 10.2625 14.3234 9.9125C14.2266 9.56094 13.8609 9.35313 13.5047 9.44844ZM10.9984 8.79219L10.9875 8.80313C10.6609 9.15781 10.2187 9.38594 9.73906 9.44687C9.38594 9.53906 9.17344 9.89531 9.26719 10.2453C9.29687 10.3594 9.35938 10.4641 9.44375 10.5469C9.70469 10.8031 10.1266 10.8031 10.3875 10.5453C10.4937 10.4391 10.5609 10.3 10.5781 10.1516C10.6609 9.71719 10.8844 9.32188 11.2141 9.02656C11.2781 8.96875 11.2844 8.87031 11.2281 8.80625L11.2266 8.80469C11.1641 8.73906 11.0641 8.73438 10.9984 8.79219ZM11.6172 7.59531C11.5063 7.625 11.4047 7.68437 11.325 7.76406C11.0687 8.01719 11.0656 8.42969 11.3188 8.68594L11.3266 8.69375C11.4344 8.8 11.575 8.86562 11.725 8.88281C12.1625 8.9625 12.5625 9.18125 12.8641 9.50625C12.9266 9.56875 13.0266 9.56875 13.0891 9.50781C13.1516 9.44844 13.1531 9.35 13.0938 9.2875C13.0859 9.27969 13.0766 9.27188 13.0672 9.26562C12.7219 8.94688 12.4984 8.51875 12.4359 8.05313C12.3406 7.70313 11.9734 7.49844 11.6172 7.59531Z" fill="#0087F3"/>
</g>
<defs>
<clipPath id="clip0_528_1778">
<rect width="16" height="16" fill="white"/>
</clipPath>
</defs>
</svg>
