<svg width="16" height="16" viewBox="0 0 16 16" fill="none" xmlns="http://www.w3.org/2000/svg">
<g clip-path="url(#clip0_528_1783)">
<path d="M8 0C3.58214 0 0 3.58214 0 8C0 12.4179 3.58214 16 8 16C12.4179 16 16 12.4179 16 8C16 3.58214 12.4179 0 8 0ZM11.7589 10.9357C11.5536 10.9607 10.9571 9.99464 10.9571 9.99464C10.9571 10.5536 10.6679 11.2839 10.0446 11.8125C10.3464 11.9054 11.025 12.1554 10.8643 12.4268C10.7339 12.6464 8.62143 12.5679 8.01071 12.4982C7.4 12.5661 5.2875 12.6464 5.15714 12.4268C4.99464 12.1554 5.67321 11.9054 5.975 11.8125C5.35 11.2857 5.0625 10.5554 5.0625 9.99464C5.0625 9.99464 4.46607 10.9607 4.26071 10.9357C4.16429 10.9232 4.03929 10.4071 4.42857 9.15536C4.6125 8.56607 4.82143 8.075 5.14643 7.26607C5.09107 5.17857 5.95536 3.42679 8.01071 3.42679C10.0446 3.42679 10.9268 5.14286 10.875 7.26607C11.1982 8.07321 11.4089 8.56607 11.5929 9.15536C11.9804 10.4071 11.8536 10.925 11.7589 10.9357Z" fill="#30BAFC"/>
</g>
<defs>
<clipPath id="clip0_528_1783">
<rect width="16" height="16" fill="white"/>
</clipPath>
</defs>
</svg>
