<svg width="40" height="40" viewBox="0 0 40 40" fill="none" xmlns="http://www.w3.org/2000/svg">
<rect width="40" height="40" rx="8" fill="#30BAFC"/>
<path d="M29.3973 27.3393C28.8839 27.4018 27.3928 24.9867 27.3928 24.9867C27.3928 26.384 26.6696 28.2099 25.1116 29.5313C25.8661 29.7634 27.5625 30.3884 27.1607 31.067C26.8348 31.6161 21.5536 31.4197 20.0268 31.2456C18.5 31.4152 13.2187 31.6161 12.8928 31.067C12.4866 30.3884 14.183 29.7634 14.9375 29.5313C13.375 28.2143 12.6562 26.3884 12.6562 24.9867C12.6562 24.9867 11.1652 27.4018 10.6518 27.3393C10.4107 27.3081 10.0982 26.0179 11.0714 22.8884C11.5312 21.4152 12.0536 20.1876 12.8661 18.1652C12.7277 12.9465 14.8884 8.56702 20.0268 8.56702C25.1116 8.56702 27.3169 12.8572 27.1875 18.1652C27.9955 20.1831 28.5223 21.4152 28.9821 22.8884C29.9509 26.0179 29.6339 27.3126 29.3973 27.3393Z" fill="white"/>
</svg>
