<svg width="16" height="16" viewBox="0 0 16 16" fill="none" xmlns="http://www.w3.org/2000/svg">
<path d="M0 8C0 3.58172 3.58172 0 8 0V0C12.4183 0 16 3.58172 16 8V8C16 12.4183 12.4183 16 8 16V16C3.58172 16 0 12.4183 0 8V8Z" fill="#4DA8EF"/>
<path d="M11.6268 4.83914L10.3658 11.4095C10.2783 11.8766 10.0221 11.9891 9.67052 11.7735L7.75176 10.2048L6.82989 11.1938C6.72364 11.3126 6.63458 11.4095 6.44551 11.4095L6.5752 9.23914L10.1346 5.68914C10.2924 5.52977 10.1018 5.4532 9.89395 5.59227L5.49864 8.6657L3.59864 7.99852C3.19083 7.87039 3.18614 7.55789 3.69083 7.33133L11.0924 4.17195C11.4315 4.0032 11.7549 4.26414 11.6268 4.83914Z" fill="white"/>
</svg>
