<svg width="16" height="16" viewBox="0 0 16 16" fill="none" xmlns="http://www.w3.org/2000/svg">
<path d="M0 8C0 3.58172 3.58172 0 8 0V0C12.4183 0 16 3.58172 16 8V8C16 12.4183 12.4183 16 8 16V16C3.58172 16 0 12.4183 0 8V8Z" fill="black"/>
<g clip-path="url(#clip0_528_1791)">
<path d="M10.5001 10.0751H8.00427C7.54594 10.0751 7.19177 10.4667 6.97094 10.8667C6.79612 11.1948 6.51668 11.4549 6.17703 11.6059C5.83737 11.7569 5.457 11.79 5.09638 11.6999C4.73576 11.6099 4.41558 11.4019 4.18675 11.109C3.95791 10.8161 3.83355 10.4551 3.83344 10.0834C3.8376 9.79174 3.91677 9.50008 4.07094 9.25008M5.5001 10.0834L6.80427 7.67507C7.0251 7.27091 6.84594 6.76674 6.59594 6.38341C6.47794 6.1947 6.39894 5.98427 6.36358 5.76454C6.32823 5.5448 6.33725 5.32021 6.3901 5.10402C6.44295 4.88782 6.53856 4.68441 6.6713 4.50576C6.80404 4.32712 6.97122 4.17687 7.16296 4.06388C7.35471 3.95089 7.56715 3.87745 7.78773 3.84789C8.00832 3.81834 8.2326 3.83326 8.44733 3.89178C8.66206 3.9503 8.86289 4.05123 9.03798 4.18863C9.21307 4.32602 9.35886 4.49709 9.46677 4.69174M8.0001 5.50007L9.30427 7.88757C9.5251 8.29174 10.0418 8.41674 10.5001 8.41674C10.9421 8.41674 11.3661 8.59234 11.6786 8.9049C11.9912 9.21746 12.1668 9.64138 12.1668 10.0834C12.1668 10.5254 11.9912 10.9494 11.6786 11.2619C11.3661 11.5745 10.9421 11.7501 10.5001 11.7501" stroke="white" stroke-linecap="round" stroke-linejoin="round"/>
</g>
<defs>
<clipPath id="clip0_528_1791">
<rect width="10" height="10" fill="white" transform="translate(3 3)"/>
</clipPath>
</defs>
</svg>
