<svg width="40" height="40" viewBox="0 0 40 40" fill="none" xmlns="http://www.w3.org/2000/svg">
<rect width="40" height="40" rx="8" fill="black"/>
<path d="M26.2503 25.1876H20.0107C18.8648 25.1876 17.9794 26.1668 17.4273 27.1668C16.9903 27.9868 16.2917 28.6373 15.4426 29.0147C14.5934 29.3921 13.6425 29.4748 12.741 29.2497C11.8394 29.0246 11.039 28.5046 10.4669 27.7724C9.89478 27.0402 9.58388 26.1377 9.58359 25.2085C9.594 24.4793 9.79192 23.7501 10.1773 23.1251M13.7503 25.2085L17.0107 19.1876C17.5628 18.1772 17.1148 16.9168 16.4898 15.9585C16.1949 15.4867 15.9973 14.9606 15.909 14.4113C15.8206 13.8619 15.8431 13.3005 15.9752 12.76C16.1074 12.2195 16.3464 11.711 16.6783 11.2643C17.0101 10.8177 17.428 10.4421 17.9074 10.1596C18.3868 9.87718 18.9179 9.69357 19.4693 9.61968C20.0208 9.54578 20.5815 9.58308 21.1183 9.72938C21.6551 9.87568 22.1572 10.128 22.5949 10.4715C23.0327 10.815 23.3972 11.2427 23.6669 11.7293M20.0003 13.7501L23.2607 19.7189C23.8128 20.7293 25.1044 21.0418 26.2503 21.0418C27.3553 21.0418 28.4151 21.4808 29.1965 22.2622C29.9779 23.0436 30.4169 24.1034 30.4169 25.2085C30.4169 26.3135 29.9779 27.3733 29.1965 28.1547C28.4151 28.9361 27.3553 29.3751 26.2503 29.3751" stroke="white" stroke-width="2.5" stroke-linecap="round" stroke-linejoin="round"/>
</svg>
