<svg width="16" height="16" viewBox="0 0 16 16" fill="none" xmlns="http://www.w3.org/2000/svg">
<g clip-path="url(#clip0_528_1780)">
<path d="M5.27171 5.34106C4.99425 5.34106 4.7168 5.52604 4.7168 5.80349C4.7168 6.08095 4.99425 6.26592 5.27171 6.26592C5.54917 6.26592 5.73414 6.08095 5.73414 5.80349C5.73414 5.51447 5.54917 5.34106 5.27171 5.34106ZM9.02894 8.02315C8.84396 8.02315 8.67055 8.21968 8.67055 8.39309C8.67055 8.58962 8.85553 8.76303 9.02894 8.76303C9.30639 8.76303 9.49136 8.57806 9.49136 8.39309C9.49136 8.20812 9.30639 8.02315 9.02894 8.02315ZM7.83818 6.26592C8.11564 6.26592 8.30061 6.06939 8.30061 5.80349C8.30061 5.52604 8.11564 5.34106 7.83818 5.34106C7.56073 5.34106 7.28327 5.52604 7.28327 5.80349C7.28327 6.08095 7.56073 6.26592 7.83818 6.26592ZM11.0405 8.02315C10.8555 8.02315 10.6821 8.21968 10.6821 8.39309C10.6821 8.58962 10.8671 8.76303 11.0405 8.76303C11.318 8.76303 11.5029 8.57806 11.5029 8.39309C11.5029 8.20812 11.318 8.02315 11.0405 8.02315Z" fill="#28C445"/>
<path d="M7.97688 0.0462646C3.57225 0.0462646 0 3.61852 0 8.02314C0 12.4278 3.57225 16 7.97688 16C12.3815 16 15.9538 12.4278 15.9538 8.02314C15.9538 3.61852 12.3815 0.0462646 7.97688 0.0462646ZM6.46243 10.0694C6 10.0694 5.63006 9.9769 5.19075 9.87285L3.91908 10.5203L4.27746 9.39887C3.36416 8.75147 2.80925 7.90754 2.80925 6.90176C2.80925 5.13297 4.46243 3.74569 6.46243 3.74569C8.25434 3.74569 9.83815 4.85551 10.1503 6.34684C10.0347 6.33528 9.91907 6.32372 9.80347 6.32372C8.06936 6.34684 6.7052 7.6532 6.7052 9.2717C6.7052 9.53759 6.75145 9.79193 6.82081 10.0463C6.7052 10.0578 6.57803 10.0694 6.46243 10.0694ZM11.8728 11.3642L12.1503 12.289L11.1561 11.7341C10.7977 11.8266 10.4277 11.9191 10.0578 11.9191C8.31214 11.9191 6.93642 10.7168 6.93642 9.22546C6.92486 7.74569 8.30058 6.54337 10.0347 6.54337C11.6879 6.54337 13.1445 7.75725 13.1445 9.23702C13.1445 10.0694 12.6012 10.8093 11.8728 11.3642Z" fill="#28C445"/>
</g>
<defs>
<clipPath id="clip0_528_1780">
<rect width="16" height="16" fill="white"/>
</clipPath>
</defs>
</svg>
