<svg width="40" height="40" viewBox="0 0 40 40" fill="none" xmlns="http://www.w3.org/2000/svg">
<rect width="40" height="40" rx="8" fill="#28C445"/>
<path fill-rule="evenodd" clip-rule="evenodd" d="M25.0869 16.3584C29.2197 16.3585 32.8613 19.3935 32.8613 23.0928C32.8613 25.1737 31.5024 27.0238 29.6816 28.4111L30.376 30.7227L27.8896 29.3359C26.9939 29.5671 26.0692 29.7978 25.1445 29.7979C20.7804 29.7979 17.3408 26.7918 17.3408 23.0635C17.3122 19.3643 20.7518 16.3584 25.0869 16.3584ZM22.5723 20.0576C22.1099 20.0577 21.6769 20.549 21.6768 20.9824C21.6768 21.4737 22.1388 21.9072 22.5723 21.9072C23.2659 21.9072 23.7285 21.4448 23.7285 20.9824C23.7284 20.5201 23.2658 20.0576 22.5723 20.0576ZM27.6016 20.0576C27.1392 20.0576 26.7052 20.5489 26.7051 20.9824C26.7051 21.4738 27.168 21.9072 27.6016 21.9072C28.295 21.9071 28.7568 21.4448 28.7568 20.9824C28.7567 20.5201 28.2949 20.0578 27.6016 20.0576Z" fill="white"/>
<path fill-rule="evenodd" clip-rule="evenodd" d="M16.1562 9.36426C20.6359 9.36435 24.5956 12.139 25.376 15.8672C25.087 15.8383 24.7977 15.8096 24.5088 15.8096C20.1735 15.8674 16.7627 19.1334 16.7627 23.1797C16.7627 23.8444 16.8784 24.4804 17.0518 25.1162C16.7629 25.1451 16.4451 25.1738 16.1562 25.1738C15.0002 25.1738 14.0748 24.9427 12.9766 24.6826L9.79785 26.3008L10.6934 23.4971C8.41038 21.8786 7.02351 19.7691 7.02344 17.2549C7.02344 12.8329 11.1562 9.36426 16.1562 9.36426ZM13.1797 13.3525C12.486 13.3525 11.792 13.8151 11.792 14.5088C11.7921 15.2023 12.4861 15.665 13.1797 15.665C13.873 15.6649 14.3349 15.2022 14.335 14.5088C14.335 13.7864 13.8731 13.3527 13.1797 13.3525ZM19.5957 13.3525C18.9021 13.3525 18.208 13.8151 18.208 14.5088C18.2081 15.2023 18.9021 15.665 19.5957 15.665C20.2891 15.6649 20.7519 15.1734 20.752 14.5088C20.752 13.8152 20.2892 13.3526 19.5957 13.3525Z" fill="white"/>
</svg>
