<svg width="40" height="40" viewBox="0 0 40 40" fill="none" xmlns="http://www.w3.org/2000/svg">
<rect width="40" height="40" rx="8" fill="#00CC70"/>
<path d="M11.76 2.64001C8.64 5.44001 7.32 11 9.64 14.16C12.08 17.52 17.64 17.08 21.24 14.36C25.28 11.28 31.32 11.36 33.28 15.96C34.8 19.64 33.4 24.16 29.76 26.76C22.6 31.92 12.12 30.96 7.28 24.36C2.52 17.8 5.04 8.16001 11.76 2.64001Z" fill="white"/>
<path d="M20 0.959961C8.96 0.959961 0 9.43996 0 19.88C0 30.32 8.96 38.84 20 38.84C31.04 38.84 40 30.36 40 19.88C40 9.39996 31.04 0.959961 20 0.959961ZM29.76 26.76C22.6 31.92 12.12 30.96 7.28 24.36C2.52 17.8 5.04 8.15996 11.76 2.63996C8.64 5.43996 7.32 11 9.64 14.16C12.08 17.52 17.64 17.08 21.24 14.36C25.28 11.28 31.32 11.36 33.28 15.96C34.8 19.64 33.4 24.16 29.76 26.76Z" fill="#00CC70"/>
<path d="M24.64 24.72C24.28 24.72 23.96 24.56 23.76 24.28L22.04 22C21.76 21.6 21.76 21.04 22.04 20.64L23.76 18.44C24.12 17.96 24.84 17.88 25.32 18.24C25.8 18.6 25.88 19.32 25.52 19.8L24.32 21.36L25.52 22.96C25.88 23.44 25.8 24.16 25.28 24.52C25.08 24.68 24.84 24.72 24.6 24.72H24.64ZM18.12 21.4C18.12 24.4 17.52 24.96 16.2 24.96C14.88 24.96 14.28 24.4 14.28 21.4C14.28 18.4 14.88 17.84 16.2 17.84C17.52 17.84 18.12 18.4 18.12 21.4Z" fill="black"/>
</svg>
