<svg width="16" height="16" viewBox="0 0 16 16" fill="none" xmlns="http://www.w3.org/2000/svg">
<g clip-path="url(#clip0_528_1864)">
<path d="M4.704 1.05603C3.456 2.17603 2.928 4.40003 3.856 5.66403C4.832 7.00803 7.056 6.83203 8.496 5.74403C10.112 4.51203 12.528 4.54403 13.312 6.38403C13.92 7.85603 13.36 9.66403 11.904 10.704C9.04 12.768 4.848 12.384 2.912 9.74403C1.008 7.12003 2.016 3.26403 4.704 1.05603Z" fill="white"/>
<path d="M8 0.384033C3.584 0.384033 0 3.77603 0 7.95203C0 12.128 3.584 15.536 8 15.536C12.416 15.536 16 12.144 16 7.95203C16 3.76003 12.416 0.384033 8 0.384033ZM11.904 10.704C9.04 12.768 4.848 12.384 2.912 9.74403C1.008 7.12003 2.016 3.26403 4.704 1.05603C3.456 2.17603 2.928 4.40003 3.856 5.66403C4.832 7.00803 7.056 6.83203 8.496 5.74403C10.112 4.51203 12.528 4.54403 13.312 6.38403C13.92 7.85603 13.36 9.66403 11.904 10.704Z" fill="#00CC70"/>
<path d="M9.85601 9.88799C9.71201 9.88799 9.58401 9.82399 9.50401 9.71199L8.81601 8.79999C8.70401 8.63999 8.70401 8.41599 8.81601 8.25599L9.50401 7.37599C9.64801 7.18399 9.93601 7.15199 10.128 7.29599C10.32 7.43999 10.352 7.72799 10.208 7.91999L9.72801 8.54399L10.208 9.18399C10.352 9.37599 10.32 9.66399 10.112 9.80799C10.032 9.87199 9.93601 9.88799 9.84001 9.88799H9.85601ZM7.24801 8.55999C7.24801 9.75999 7.00801 9.98399 6.48001 9.98399C5.95201 9.98399 5.71201 9.75999 5.71201 8.55999C5.71201 7.35999 5.95201 7.13599 6.48001 7.13599C7.00801 7.13599 7.24801 7.35999 7.24801 8.55999Z" fill="black"/>
</g>
<defs>
<clipPath id="clip0_528_1864">
<rect width="16" height="16" fill="white"/>
</clipPath>
</defs>
</svg>
