<svg preserveAspectRatio="none" width="100%" height="100%" overflow="visible" style="display: block;" viewBox="0 0 56 56" fill="none" xmlns="http://www.w3.org/2000/svg">
<g id="hermes-logo 3">
<g id="Vector">
<path d="M12.0849 32.6029C14.9121 29.1943 19.7721 27.7729 23.8956 26.6236C30.6278 24.7472 37.7928 23.5786 43.6035 19.4336C49.5299 15.205 52.3792 8.6186 52.5135 1.40431C52.3556 1.36717 52.3485 1.45717 52.2728 1.54574C51.8821 2.0036 51.5313 2.56574 51.1106 3.02217C46.2063 8.34788 36.9049 11.8243 30.1078 14.0243C22.7785 16.3965 14.5135 17.825 9.36135 24.0907C5.28778 29.0443 5.32992 35.6343 8.93206 40.8143C9.53849 37.9929 10.2021 34.8729 12.0849 32.6029Z" fill="var(--fill-0, black)"/>
<path d="M25.1059 27.8779C21.218 28.8279 16.6723 30.0707 13.9573 33.1993C11.9259 35.54 11.2837 38.8364 10.1887 41.6879C8.71229 45.5322 6.813 49.1929 4.713 52.725L3.48657 54.6043C6.253 53.9057 9.078 52.5607 11.393 50.8929C16.4844 47.225 20.5301 40.45 22.7244 34.6457C23.5694 32.41 24.1823 30.085 25.1059 27.8779Z" fill="black"/>
<path d="M26.0415 30.2982C25.5451 31.6789 25.0443 33.1011 24.6808 34.5125C28.5115 34.8047 32.5729 34.4039 36.1708 33.0218C42.1086 30.7411 46.0772 24.9504 47.3222 18.8511C41.7793 23.8897 34.2451 25.6582 27.1515 27.4075C26.7308 28.3497 26.3901 29.3275 26.0415 30.2982Z" fill="black"/>
<path d="M26.3392 35.9629C25.5614 35.9472 24.7892 35.9186 24.0135 35.8915C23.1406 38.2701 21.8849 40.4693 20.6799 42.6858C23.8749 43.5115 27.1085 43.6686 30.2342 42.4951C34.3242 40.9601 37.4542 37.4529 39.1506 33.4951C36.8849 34.5143 34.4906 35.2286 32.0292 35.6079C30.1235 35.9015 28.2492 36.0015 26.3392 35.9629Z" fill="black"/>
<path d="M22.1964 44.4471C21.3985 44.3078 20.6214 44.09 19.8407 43.8857C18.665 46.06 17.0957 47.9764 15.4878 49.8357C20.1178 50.6442 24.8614 49.0078 27.9593 45.4964C28.0621 45.38 28.7643 44.5564 28.6807 44.4742C26.5721 44.9207 24.3178 44.8178 22.1964 44.4471Z" fill="black"/>
</g>
</g>
</svg>
