<svg width="16" height="16" viewBox="0 0 16 16" fill="none" xmlns="http://www.w3.org/2000/svg">
<path d="M13.0647 7.35533L7.11003 13.31C6.38093 14.0391 5.39202 14.4487 4.3607 14.4487C3.32938 14.4487 2.34047 14.0391 1.61137 13.31C0.88226 12.5809 0.472656 11.592 0.472656 10.5607C0.472656 9.52935 0.88226 8.54044 1.61137 7.81133L7.56603 1.85667C8.0521 1.3706 8.71138 1.09753 9.39937 1.09753C10.0874 1.09753 10.7466 1.3706 11.2327 1.85667C11.7188 2.34274 11.9918 3.00202 11.9918 3.69C11.9918 4.37798 11.7188 5.03727 11.2327 5.52333L5.27137 11.478C5.02833 11.721 4.69868 11.8576 4.3547 11.8576C4.01071 11.8576 3.68107 11.721 3.43803 11.478C3.195 11.235 3.05846 10.9053 3.05846 10.5613C3.05846 10.2174 3.195 9.8877 3.43803 9.64467L8.92603 4.16333" stroke="var(--stroke-0, currentColor)" stroke-linecap="round" stroke-linejoin="round"/>
</svg>
