<svg width="16" height="16" viewBox="0 0 16 16" fill="none" xmlns="http://www.w3.org/2000/svg">
<path d="M4.66667 12.6667C5.71195 13.4506 6.98967 13.8613 8.29603 13.8324C9.60238 13.8036 10.8622 13.3368 11.8712 12.5076C12.8802 11.6783 13.5803 10.5344 13.858 9.25775C14.1357 7.98115 13.9749 6.64542 13.4017 5.47128C12.8286 4.29714 11.8761 3.35225 10.6974 2.78849C9.51876 2.22472 8.18182 2.07455 6.90747 2.36245C5.63312 2.65035 4.4947 3.35973 3.67351 4.37533C2.85231 5.39092 2.3956 6.65426 2.37733 7.96067C2.358 9.35733 2.81333 10.6467 3.59333 11.68L2.66667 14L4.66667 12.6667Z" stroke="var(--stroke-0, currentColor)" stroke-linecap="round" stroke-linejoin="round"/>
<path d="M6.66667 6.66667C6.66667 6.31305 6.80714 5.97391 7.05719 5.72386C7.30724 5.47381 7.64638 5.33334 8 5.33334C8.35362 5.33334 8.69276 5.47381 8.94281 5.72386C9.19286 5.97391 9.33333 6.31305 9.33333 6.66667C9.33333 7.66667 8 8 8 8.66667" stroke="var(--stroke-0, currentColor)" stroke-linecap="round" stroke-linejoin="round"/>
<path d="M8.00667 11.3333H8" stroke="var(--stroke-0, currentColor)" stroke-linecap="round" stroke-linejoin="round"/>
</svg>
