<svg width="16" height="16" viewBox="0 0 16 16" fill="none" xmlns="http://www.w3.org/2000/svg">
<path d="M4.875 13.4137V12.375C4.875 12.0435 5.0067 11.7255 5.24112 11.4911C5.47554 11.2567 5.79348 11.125 6.125 11.125H9.875C10.2065 11.125 10.5245 11.2567 10.7589 11.4911C10.9933 11.7255 11.125 12.0435 11.125 12.375V13.4137M14.25 8C14.25 11.4518 11.4518 14.25 8 14.25C4.54822 14.25 1.75 11.4518 1.75 8C1.75 4.54822 4.54822 1.75 8 1.75C11.4518 1.75 14.25 4.54822 14.25 8ZM9.875 6.75C9.875 7.78553 9.03553 8.625 8 8.625C6.96447 8.625 6.125 7.78553 6.125 6.75C6.125 5.71447 6.96447 4.875 8 4.875C9.03553 4.875 9.875 5.71447 9.875 6.75Z" stroke="var(--stroke-0, currentColor)" stroke-linecap="round" stroke-linejoin="round"/>
</svg>
