<svg preserveAspectRatio="none" width="100%" height="100%" overflow="visible" style="display: block;" viewBox="0 0 13.8334 15" fill="none" xmlns="http://www.w3.org/2000/svg">
<g id="Group">
<path id="Vector" d="M9.83343 14.5C9.83343 14.5 9.83343 12.7344 9.83343 12.1667C9.83343 11.6767 9.9501 10.6422 9.44454 10.2222C10.5257 10.1211 11.3734 9.77111 12.1668 9.05556C12.9601 8.34 13.3334 7.25889 13.3334 5.55556C13.3334 4.38889 13.139 3.61111 12.5557 2.83333C12.7812 2.22667 12.8201 1.27778 12.5557 0.5C11.3423 0.5 10.2457 1.33222 9.83343 1.66667C9.5301 1.58889 8.79899 1.27778 7.5001 1.27778C6.20121 1.27778 5.4701 1.58889 5.16677 1.66667C4.75454 1.33222 3.65788 0.5 2.44454 0.5C2.1801 1.27778 2.21899 2.22667 2.44454 2.83333C1.86121 3.61111 1.66677 4.38889 1.66677 5.55556C1.66677 7.25889 2.0401 8.34 2.83343 9.05556C3.62677 9.77111 4.47454 10.1211 5.55565 10.2222C5.0501 10.6422 5.16677 11.6767 5.16677 12.1667C5.16677 12.7344 5.16677 14.5 5.16677 14.5" stroke="var(--stroke-0, black)" stroke-linecap="round" stroke-linejoin="round"/>
<path id="Vector_2" d="M5.16677 12.9443C4.0701 12.9443 2.95788 12.5088 2.29677 12.0188C1.64343 11.5288 1.44899 10.7277 0.500099 10.2221" stroke="var(--stroke-0, black)" stroke-linecap="round" stroke-linejoin="round"/>
</g>
</svg>
