<svg preserveAspectRatio="none" width="100%" height="100%" overflow="visible" style="display: block;" viewBox="0 0 12 12" fill="none" xmlns="http://www.w3.org/2000/svg">
<g id="lucide/message-circle">
<path id="Vector" d="M1.54297 8.75447C1.58586 8.55964 1.56949 8.35643 1.49597 8.17097C0.984352 7.10945 0.864095 5.90134 1.15641 4.75979C1.44873 3.61824 2.13484 2.61662 3.09369 1.93164C4.05254 1.24666 5.2225 0.922346 6.39716 1.01592C7.57182 1.10949 8.67569 1.61493 9.514 2.44307C10.3523 3.2712 10.8712 4.36881 10.9791 5.54224C11.087 6.71567 10.777 7.88951 10.1038 8.85665C9.4306 9.8238 8.43743 10.5221 7.29954 10.8283C6.16165 11.1346 4.95216 11.0291 3.88447 10.5305C3.70923 10.4639 3.51883 10.448 3.33497 10.4845L1.62847 10.9835C1.54615 11.0053 1.45961 11.0058 1.37707 10.9848C1.29452 10.9638 1.2187 10.9221 1.1568 10.8636C1.0949 10.8051 1.04896 10.7318 1.02336 10.6505C0.997746 10.5693 0.99331 10.4829 1.01047 10.3995L1.54297 8.75447Z" fill="var(--fill-0, white)"/>
</g>
</svg>
