<svg preserveAspectRatio="none" width="100%" height="100%" overflow="visible" style="display: block;" viewBox="0 0 16 16" fill="none" xmlns="http://www.w3.org/2000/svg">
<g id="lucide/trash">
<path id="Vector" d="M12.6667 4V13.3333C12.6667 13.687 12.5262 14.0261 12.2761 14.2761C12.0261 14.5262 11.687 14.6667 11.3333 14.6667H4.66667C4.31304 14.6667 3.97391 14.5262 3.72386 14.2761C3.47381 14.0261 3.33333 13.687 3.33333 13.3333V4M2 4H14M5.33333 4V2.66667C5.33333 2.31304 5.47381 1.97391 5.72386 1.72386C5.97391 1.47381 6.31304 1.33333 6.66667 1.33333H9.33333C9.68695 1.33333 10.0261 1.47381 10.2761 1.72386C10.5262 1.97391 10.6667 2.31304 10.6667 2.66667V4" stroke="var(--stroke-0, #999999)" stroke-linecap="round" stroke-linejoin="round"/>
</g>
</svg>
