<svg preserveAspectRatio="none" width="100%" height="100%" overflow="visible" style="display: block;" viewBox="0 0 32 32" fill="none" xmlns="http://www.w3.org/2000/svg">
<g id="lucide/archive">
<path id="Vector" d="M5.33366 10.6667V25.3333C5.33366 26.0406 5.61461 26.7189 6.11471 27.219C6.6148 27.719 7.29308 28 8.00033 28H24.0003C24.7076 28 25.3858 27.719 25.8859 27.219C26.386 26.7189 26.667 26.0406 26.667 25.3333V10.6667M13.3337 16H18.667M4.00033 4H28.0003C28.7367 4 29.3337 4.59695 29.3337 5.33333V9.33333C29.3337 10.0697 28.7367 10.6667 28.0003 10.6667H4.00033C3.26395 10.6667 2.66699 10.0697 2.66699 9.33333V5.33333C2.66699 4.59695 3.26395 4 4.00033 4Z" stroke="var(--stroke-0, black)" stroke-width="2" stroke-linecap="round" stroke-linejoin="round"/>
</g>
</svg>
