<svg preserveAspectRatio="none" width="100%" height="100%" overflow="visible" style="display: block;" viewBox="0 0 36 36" fill="none" xmlns="http://www.w3.org/2000/svg">
<g id="hermes-logo 3">
<path id="Vector" d="M10.5542 19.5785C11.9457 17.9009 14.3377 17.2013 16.3673 16.6356C19.6808 15.712 23.2073 15.1369 26.0672 13.0968C28.9842 11.0155 30.3865 7.77376 30.4526 4.22298C30.3749 4.2047 30.3714 4.24899 30.3342 4.29259C30.1418 4.51794 29.9692 4.79462 29.7622 5.01927C27.3483 7.64052 22.7703 9.35157 19.4248 10.4344C15.8174 11.6019 11.7495 12.305 9.21368 15.389C7.20872 17.827 7.22947 21.0706 9.0024 23.6201C9.30087 22.2314 9.62747 20.6958 10.5542 19.5785Z" fill="var(--fill-0, white)"/>
<path id="Vector_2" d="M16.9618 17.2529C15.0483 17.7205 12.8109 18.3322 11.4746 19.8721C10.4748 21.0241 10.1588 22.6466 9.61981 24.05C8.89313 25.9421 7.95832 27.7439 6.92473 29.4824L6.32109 30.4073C7.6827 30.0635 9.07312 29.4015 10.2125 28.5806C12.7185 26.7754 14.7097 23.4408 15.7897 20.584C16.2056 19.4836 16.5076 18.3393 16.9622 17.2529H16.9618Z" fill="var(--fill-0, white)"/>
<path id="Vector_3" d="M17.4217 18.4442C17.1773 19.1238 16.9309 19.8237 16.752 20.5184C18.6374 20.6622 20.6364 20.465 22.4072 19.7847C25.3297 18.6622 27.283 15.8121 27.8958 12.8101C25.1677 15.29 21.4594 16.1604 17.968 17.0214C17.7609 17.4851 17.5932 17.9664 17.4217 18.4442Z" fill="var(--fill-0, white)"/>
<path id="Vector_4" d="M17.5686 21.2322C17.1858 21.2244 16.8057 21.2104 16.4239 21.197C15.9943 22.3677 15.3763 23.4502 14.7832 24.5411C16.3557 24.9475 17.9473 25.0248 19.4857 24.4472C21.4988 23.6917 23.0393 21.9655 23.8743 20.0175C22.7591 20.5192 21.5807 20.8708 20.3692 21.0574C19.4312 21.2019 18.5087 21.2512 17.5686 21.2322Z" fill="var(--fill-0, white)"/>
<path id="Vector_5" d="M15.5292 25.4082C15.1365 25.3397 14.754 25.2324 14.3698 25.1319C13.7911 26.202 13.0187 27.1453 12.2273 28.0604C14.5062 28.4584 16.8409 27.6529 18.3656 25.9247C18.4163 25.8674 18.7618 25.462 18.7207 25.4216C17.6829 25.6413 16.5734 25.5907 15.5292 25.4082Z" fill="var(--fill-0, white)"/>
</g>
</svg>
