<svg preserveAspectRatio="none" width="100%" height="100%" overflow="visible" style="display: block;" viewBox="0 0 16 16" fill="none" xmlns="http://www.w3.org/2000/svg">
<g id="lucide/router" clip-path="url(#clip0_0_7)">
<path id="Vector" d="M4.00667 12H4M6.67333 12H6.66667M10 6.66667V9.33333M11.8933 4.78C11.6457 4.53206 11.3516 4.33537 11.0278 4.20117C10.7041 4.06698 10.3571 3.9979 10.0067 3.9979C9.65622 3.9979 9.30922 4.06698 8.98549 4.20117C8.66176 4.33537 8.36766 4.53206 8.12 4.78M13.7733 2.89333C12.7732 1.8939 11.4172 1.33247 10.0033 1.33247C8.58945 1.33247 7.23343 1.8939 6.23333 2.89333M2.66667 9.33333H13.3333C14.0697 9.33333 14.6667 9.93029 14.6667 10.6667V13.3333C14.6667 14.0697 14.0697 14.6667 13.3333 14.6667H2.66667C1.93029 14.6667 1.33333 14.0697 1.33333 13.3333V10.6667C1.33333 9.93029 1.93029 9.33333 2.66667 9.33333Z" stroke="var(--stroke-0, black)" stroke-linecap="round" stroke-linejoin="round"/>
</g>
<defs>
<clipPath id="clip0_0_7">
<rect width="16" height="16" fill="white"/>
</clipPath>
</defs>
</svg>
