<svg preserveAspectRatio="none" width="100%" height="100%" overflow="visible" style="display: block;" viewBox="0 0 16 16" fill="none" xmlns="http://www.w3.org/2000/svg">
<g id="lucide/server" clip-path="url(#clip0_0_15)">
<path id="Vector" d="M4 4H4.00667M4 12H4.00667M2.66667 1.33333H13.3333C14.0697 1.33333 14.6667 1.93029 14.6667 2.66667V5.33333C14.6667 6.06971 14.0697 6.66667 13.3333 6.66667H2.66667C1.93029 6.66667 1.33333 6.06971 1.33333 5.33333V2.66667C1.33333 1.93029 1.93029 1.33333 2.66667 1.33333ZM2.66667 9.33333H13.3333C14.0697 9.33333 14.6667 9.93029 14.6667 10.6667V13.3333C14.6667 14.0697 14.0697 14.6667 13.3333 14.6667H2.66667C1.93029 14.6667 1.33333 14.0697 1.33333 13.3333V10.6667C1.33333 9.93029 1.93029 9.33333 2.66667 9.33333Z" stroke="var(--stroke-0, black)" stroke-linecap="round" stroke-linejoin="round"/>
</g>
<defs>
<clipPath id="clip0_0_15">
<rect width="16" height="16" fill="white"/>
</clipPath>
</defs>
</svg>
